<svg xmlns="http://www.w3.org/2000/svg" width="375" viewBox="0 0 375 375" height="375" version="1.0"><defs><clipPath id="a"><path d="M 256.519531 220.023438 L 347 220.023438 L 347 302.046875 L 256.519531 302.046875 Z M 256.519531 220.023438"/></clipPath><clipPath id="b"><path d="M 278.230469 278 L 308 278 L 308 302.046875 L 278.230469 302.046875 Z M 278.230469 278"/></clipPath><clipPath id="c"><path d="M 0.5 285 L 248.285156 285 L 248.285156 302.046875 L 0.5 302.046875 Z M 0.5 285"/></clipPath><clipPath id="d"><path d="M 312.667969 224.519531 L 374.53125 224.519531 L 374.53125 302.046875 L 312.667969 302.046875 Z M 312.667969 224.519531"/></clipPath><clipPath id="e"><path d="M 340.363281 281.503906 L 359 281.503906 L 359 302.046875 L 340.363281 302.046875 Z M 340.363281 281.503906"/></clipPath></defs><path fill="#281516" d="M 272.734375 168.558594 L 272.359375 168.558594 C 272.359375 171.550781 272.070312 174.253906 271.617188 176.1875 C 271.394531 177.15625 271.121094 177.929688 270.84375 178.429688 C 270.707031 178.679688 270.566406 178.863281 270.445312 178.964844 C 270.324219 179.070312 270.242188 179.09375 270.175781 179.09375 C 270.109375 179.09375 270.027344 179.070312 269.90625 178.964844 C 269.695312 178.78125 269.429688 178.359375 269.199219 177.753906 C 268.488281 175.925781 267.992188 172.480469 267.992188 168.558594 C 267.992188 165.570312 268.28125 162.867188 268.734375 160.933594 C 268.957031 159.964844 269.230469 159.191406 269.507812 158.6875 C 269.648438 158.441406 269.789062 158.257812 269.90625 158.15625 C 270.027344 158.050781 270.109375 158.027344 270.175781 158.027344 C 270.242188 158.027344 270.324219 158.050781 270.445312 158.15625 C 270.65625 158.335938 270.921875 158.757812 271.152344 159.367188 C 271.863281 161.195312 272.359375 164.640625 272.359375 168.558594 L 273.105469 168.558594 C 273.105469 165.523438 272.816406 162.773438 272.347656 160.757812 C 272.109375 159.753906 271.828125 158.929688 271.5 158.324219 C 271.328125 158.023438 271.152344 157.777344 270.9375 157.589844 C 270.726562 157.402344 270.464844 157.277344 270.175781 157.277344 C 269.886719 157.277344 269.628906 157.402344 269.414062 157.589844 C 269.046875 157.917969 268.761719 158.429688 268.5 159.097656 C 267.734375 161.089844 267.246094 164.570312 267.246094 168.558594 C 267.246094 171.597656 267.535156 174.34375 268.003906 176.359375 C 268.242188 177.367188 268.523438 178.191406 268.851562 178.792969 C 269.023438 179.09375 269.199219 179.34375 269.414062 179.53125 C 269.628906 179.714844 269.886719 179.84375 270.175781 179.84375 C 270.464844 179.84375 270.726562 179.714844 270.9375 179.53125 C 271.308594 179.199219 271.589844 178.6875 271.851562 178.023438 C 272.617188 176.027344 273.105469 172.546875 273.105469 168.558594 L 272.734375 168.558594"/><path fill="#F57586" d="M 332.230469 172.835938 C 330.464844 193.832031 307.339844 210.855469 289.542969 210.855469 C 271.746094 210.855469 266.011719 193.832031 267.78125 172.835938 C 269.550781 151.839844 285.414062 134.820312 303.210938 134.820312 C 321.007812 134.820312 334.003906 151.839844 332.230469 172.835938"/><path fill="#F57586" d="M 333.855469 172.835938 L 290 172.835938 L 290 224.933594 L 339.628906 220.359375 L 333.855469 172.835938"/><path fill="#281516" d="M 291.582031 157.898438 C 281.980469 163.761719 269.433594 159.535156 265.011719 149.183594 C 261.164062 140.183594 264.207031 124.71875 275.039062 121.257812 C 292.242188 115.761719 294.957031 129.871094 311.167969 130.066406 C 327.382812 130.265625 337.269531 139.175781 339.246094 146.898438 C 341.222656 154.621094 336.09375 191.25 336.09375 191.25 L 299.308594 191.25 C 299.308594 191.25 291.992188 174.222656 292.585938 166.5 C 293.179688 158.78125 293.179688 156.800781 293.179688 156.800781 C 293.179688 156.800781 292.621094 157.261719 291.582031 157.898438"/><path fill="#F57586" d="M 301.628906 171.023438 C 301.628906 176.585938 298.476562 181.09375 294.585938 181.09375 C 290.695312 181.09375 287.542969 176.585938 287.542969 171.023438 C 287.542969 165.464844 290.695312 160.957031 294.585938 160.957031 C 298.476562 160.957031 301.628906 165.464844 301.628906 171.023438"/><path fill="#281516" d="M 291.730469 167.316406 L 291.738281 167.304688 C 291.789062 167.222656 292.089844 166.796875 292.589844 166.40625 C 293.089844 166.015625 293.773438 165.65625 294.625 165.65625 C 294.953125 165.65625 295.308594 165.710938 295.695312 165.839844 C 296.238281 166.015625 296.9375 166.5625 297.476562 167.441406 C 298.023438 168.324219 298.421875 169.53125 298.421875 171.027344 C 298.425781 172.519531 298.035156 173.851562 297.5 174.78125 C 297.230469 175.246094 296.925781 175.613281 296.628906 175.851562 C 296.328125 176.089844 296.046875 176.195312 295.8125 176.195312 C 295.609375 176.195312 295.441406 176.363281 295.441406 176.570312 C 295.441406 176.777344 295.609375 176.945312 295.8125 176.945312 C 296.269531 176.945312 296.707031 176.746094 297.09375 176.4375 C 298.253906 175.492188 299.164062 173.464844 299.171875 171.027344 C 299.171875 169.394531 298.734375 168.050781 298.117188 167.046875 C 297.492188 166.046875 296.699219 165.382812 295.929688 165.125 C 295.472656 164.972656 295.03125 164.90625 294.625 164.90625 C 293.484375 164.90625 292.601562 165.417969 292.011719 165.910156 C 291.421875 166.40625 291.113281 166.890625 291.097656 166.914062 C 290.984375 167.089844 291.039062 167.320312 291.214844 167.429688 C 291.386719 167.542969 291.621094 167.492188 291.730469 167.316406"/><path fill="#F57586" d="M 269.75 167.28125 C 269.75 167.28125 263.992188 176.574219 264.289062 178.582031 C 264.585938 180.585938 270.960938 181.917969 270.960938 181.917969 L 269.75 167.28125"/><path fill="#281516" d="M 275.222656 167.40625 C 275.222656 168.824219 274.78125 169.976562 274.238281 169.976562 C 273.691406 169.976562 273.25 168.824219 273.25 167.40625 C 273.25 165.984375 273.691406 164.832031 274.238281 164.832031 C 274.78125 164.832031 275.222656 165.984375 275.222656 167.40625"/><path fill="#281516" d="M 271.417969 186.488281 C 271.421875 186.492188 271.488281 186.492188 271.617188 186.492188 C 272.140625 186.492188 273.617188 186.460938 275.28125 186.132812 C 276.945312 185.804688 278.808594 185.1875 280.117188 183.953125 C 280.265625 183.8125 280.273438 183.578125 280.128906 183.425781 C 279.988281 183.277344 279.75 183.269531 279.601562 183.414062 C 278.476562 184.484375 276.730469 185.089844 275.136719 185.394531 C 273.542969 185.710938 272.113281 185.742188 271.617188 185.742188 C 271.5 185.742188 271.4375 185.742188 271.4375 185.742188 C 271.230469 185.734375 271.058594 185.898438 271.050781 186.105469 C 271.046875 186.3125 271.210938 186.484375 271.417969 186.492188"/><path fill="#281516" d="M 273.757812 161.746094 L 273.785156 161.753906 C 273.945312 161.78125 274.746094 161.964844 275.621094 162.453125 C 276.496094 162.9375 277.433594 163.722656 277.929688 164.972656 C 278.003906 165.160156 278.226562 165.253906 278.414062 165.179688 C 278.609375 165.101562 278.703125 164.882812 278.625 164.691406 C 278.003906 163.140625 276.808594 162.222656 275.792969 161.691406 C 274.769531 161.160156 273.910156 161.011719 273.886719 161.007812 C 273.683594 160.96875 273.492188 161.109375 273.457031 161.3125 C 273.417969 161.519531 273.554688 161.710938 273.757812 161.746094"/><path fill="#281516" d="M 276.378906 170.472656 L 276.003906 170.472656 C 276.003906 173.464844 275.71875 176.171875 275.265625 178.101562 C 275.039062 179.070312 274.769531 179.84375 274.492188 180.34375 C 274.351562 180.597656 274.210938 180.777344 274.09375 180.878906 C 273.96875 180.984375 273.886719 181.007812 273.824219 181.007812 C 273.757812 181.007812 273.675781 180.984375 273.554688 180.878906 C 273.339844 180.703125 273.078125 180.277344 272.847656 179.671875 C 272.136719 177.839844 271.640625 174.394531 271.640625 170.472656 C 271.640625 167.488281 271.925781 164.78125 272.378906 162.847656 C 272.605469 161.882812 272.875 161.109375 273.152344 160.605469 C 273.292969 160.355469 273.433594 160.171875 273.554688 160.070312 C 273.675781 159.964844 273.757812 159.941406 273.824219 159.941406 C 273.886719 159.941406 273.96875 159.964844 274.09375 160.070312 C 274.304688 160.25 274.566406 160.675781 274.796875 161.28125 C 275.507812 163.109375 276.007812 166.554688 276.003906 170.472656 L 276.753906 170.472656 C 276.753906 167.441406 276.46875 164.691406 275.992188 162.679688 C 275.757812 161.667969 275.480469 160.84375 275.144531 160.242188 C 274.980469 159.941406 274.796875 159.695312 274.585938 159.507812 C 274.375 159.320312 274.109375 159.191406 273.824219 159.191406 C 273.535156 159.191406 273.273438 159.320312 273.0625 159.507812 C 272.691406 159.835938 272.410156 160.34375 272.148438 161.011719 C 271.382812 163.007812 270.894531 166.488281 270.894531 170.472656 C 270.894531 173.515625 271.179688 176.261719 271.652344 178.273438 C 271.886719 179.285156 272.167969 180.105469 272.503906 180.710938 C 272.667969 181.007812 272.847656 181.257812 273.0625 181.445312 C 273.273438 181.632812 273.535156 181.757812 273.824219 181.757812 C 274.109375 181.757812 274.375 181.632812 274.585938 181.445312 C 274.957031 181.117188 275.238281 180.609375 275.496094 179.941406 C 276.261719 177.945312 276.75 174.464844 276.753906 170.472656 L 276.378906 170.472656"/><path fill="#281516" d="M 267.917969 167.628906 C 267.929688 167.609375 268.035156 167.484375 268.1875 167.371094 C 268.335938 167.257812 268.527344 167.167969 268.722656 167.171875 C 268.945312 167.171875 269.242188 167.265625 269.640625 167.757812 C 270.027344 168.246094 270.476562 169.125 270.910156 170.582031 C 270.964844 170.78125 271.175781 170.894531 271.375 170.835938 C 271.570312 170.777344 271.6875 170.566406 271.625 170.367188 C 271.175781 168.859375 270.707031 167.898438 270.222656 167.289062 C 269.746094 166.679688 269.210938 166.417969 268.722656 166.421875 C 268.277344 166.421875 267.929688 166.621094 267.699219 166.804688 C 267.460938 166.988281 267.332031 167.160156 267.320312 167.179688 C 267.199219 167.347656 267.234375 167.582031 267.394531 167.707031 C 267.5625 167.828125 267.796875 167.792969 267.917969 167.628906"/><g clip-path="url(#a)"><path fill="#5CADE4" d="M 290 224.933594 C 290 224.933594 260.3125 246.75 256.863281 302.035156 L 346.46875 302.035156 C 346.46875 302.035156 346.535156 252.429688 339.628906 220.359375 L 290 224.933594"/></g><path fill="#F57586" d="M 215.332031 196.945312 C 215.332031 196.945312 223.828125 186.886719 227.890625 183.316406 C 232.226562 179.503906 237.9375 175.585938 240.050781 176.21875 C 242.167969 176.855469 233.8125 187.339844 233.8125 187.339844 C 233.8125 187.339844 251.15625 179.292969 254.539062 179.503906 C 257.921875 179.714844 243.539062 188.824219 243.539062 188.824219 C 243.539062 188.824219 259.613281 180.984375 262.363281 181.835938 C 265.113281 182.679688 246.503906 196.945312 246.503906 196.945312 C 246.503906 196.945312 258.347656 189.527344 261.730469 190.550781 C 265.113281 191.578125 249.039062 202.167969 249.039062 202.167969 C 249.039062 202.167969 258.980469 198.355469 260.671875 199.203125 C 262.363281 200.050781 229.640625 217.65625 229.640625 217.65625 C 229.640625 217.65625 214.621094 211.84375 215.332031 196.945312"/><path fill="#281516" d="M 100.511719 115.335938 C 99.402344 120.769531 101.585938 125.804688 105.386719 126.582031 C 109.191406 127.359375 113.167969 123.585938 114.277344 118.152344 C 115.386719 112.71875 113.203125 107.683594 109.402344 106.90625 C 105.597656 106.128906 101.617188 109.902344 100.511719 115.335938"/><path fill="#E6B923" d="M 127.8125 284.988281 L 3.351562 284.988281 L 15.296875 187.808594 C 17.546875 169.484375 33.089844 155.714844 51.527344 155.714844 L 112.75 155.714844 C 119.289062 155.714844 124.636719 160.933594 124.804688 167.480469 L 127.8125 284.988281"/><path fill="#E6B923" d="M 163.253906 261.792969 L 91.875 256.074219 L 91.875 284.988281 L 163.253906 284.988281 L 163.253906 261.792969"/><path fill="#F57586" d="M 163.253906 261.792969 C 163.253906 261.792969 170.574219 253.851562 173.960938 253.636719 C 177.34375 253.425781 187.285156 249.191406 191.515625 252.742188 C 193.050781 254.035156 196.699219 257.347656 196.699219 257.347656 C 196.699219 257.347656 202.527344 259.035156 202.632812 261.578125 C 202.738281 264.121094 198.707031 263.277344 199.550781 265.820312 C 200.394531 268.359375 200.714844 269.207031 198.757812 270.53125 C 196.800781 271.855469 196.699219 272.597656 196.273438 275.03125 C 195.847656 277.46875 193.628906 277.46875 192.253906 280.542969 C 190.882812 283.609375 188.765625 285.199219 186.96875 284.988281 C 185.171875 284.777344 163.253906 284.988281 163.253906 284.988281 L 163.253906 261.792969"/><path fill="#F57586" d="M 59.453125 117.714844 C 59.453125 134.890625 71.253906 148.8125 85.8125 148.8125 C 100.375 148.8125 112.175781 134.890625 112.175781 117.714844 C 112.175781 100.542969 100.375 86.617188 85.8125 86.617188 C 71.253906 86.617188 59.453125 100.542969 59.453125 117.714844"/><path fill="#F57586" d="M 59.453125 119.433594 L 98.953125 119.433594 L 98.953125 155.714844 L 55.042969 155.714844 L 59.453125 119.433594"/><path fill="#281516" d="M 95.609375 103.886719 C 105.703125 106.1875 115.191406 97.527344 113.175781 87.359375 C 112.832031 85.632812 112.15625 83.929688 111.023438 82.34375 C 104.554688 73.273438 91.777344 80.074219 79.003906 79.265625 C 66.226562 78.457031 59.433594 78.941406 55.875 85.746094 C 52.320312 92.546875 55.875 109.394531 55.875 109.394531 C 59.921875 110.792969 62.792969 114.414062 63.238281 118.675781 L 63.382812 120.082031 L 67.84375 120.082031 L 68.492188 94.816406 C 68.492188 94.816406 73.667969 94.492188 80.296875 97.410156 C 84.5 99.257812 89.113281 102.40625 95.609375 103.886719"/><path fill="#281516" d="M 61.65625 132.464844 C 61.664062 132.503906 62.285156 135.589844 64.949219 138.996094 C 67.605469 142.402344 72.328125 146.105469 80.429688 147.339844 C 82.652344 147.679688 84.683594 147.816406 86.519531 147.816406 C 94.777344 147.816406 99.113281 145.015625 99.15625 144.984375 C 99.328125 144.871094 99.378906 144.640625 99.269531 144.46875 C 99.152344 144.292969 98.921875 144.246094 98.75 144.355469 L 98.710938 144.382812 C 98.257812 144.65625 94.105469 147.066406 86.519531 147.066406 C 84.722656 147.066406 82.726562 146.933594 80.542969 146.597656 C 72.621094 145.386719 68.101562 141.808594 65.535156 138.535156 C 64.257812 136.894531 63.464844 135.335938 63 134.183594 C 62.765625 133.609375 62.613281 133.140625 62.515625 132.8125 C 62.46875 132.652344 62.4375 132.527344 62.417969 132.441406 L 62.394531 132.34375 L 62.386719 132.320312 C 62.347656 132.117188 62.152344 131.984375 61.949219 132.027344 C 61.746094 132.066406 61.617188 132.261719 61.65625 132.464844"/><path fill="#281516" d="M 92.980469 113.019531 L 92.980469 120.566406 C 92.980469 120.675781 93.027344 120.773438 93.105469 120.847656 C 93.183594 120.917969 93.289062 120.949219 93.394531 120.941406 C 93.394531 120.941406 93.445312 120.933594 93.539062 120.925781 C 93.816406 120.898438 94.476562 120.851562 95.242188 120.851562 C 95.945312 120.851562 96.746094 120.894531 97.390625 121.035156 C 97.714844 121.105469 98 121.199219 98.210938 121.3125 C 98.425781 121.421875 98.558594 121.550781 98.621094 121.671875 C 98.675781 121.773438 98.699219 121.867188 98.699219 121.972656 C 98.699219 122.191406 98.582031 122.480469 98.257812 122.804688 C 97.78125 123.285156 96.878906 123.800781 95.578125 124.175781 C 94.277344 124.546875 92.578125 124.796875 90.5 124.796875 C 90.292969 124.796875 90.125 124.96875 90.125 125.171875 C 90.125 125.378906 90.292969 125.546875 90.5 125.546875 C 93.347656 125.546875 95.535156 125.097656 97.039062 124.449219 C 97.792969 124.121094 98.375 123.746094 98.789062 123.332031 C 99.199219 122.921875 99.445312 122.464844 99.449219 121.972656 C 99.449219 121.746094 99.390625 121.523438 99.28125 121.320312 C 99.121094 121.019531 98.859375 120.804688 98.558594 120.648438 C 98.113281 120.414062 97.558594 120.285156 96.980469 120.203125 C 96.402344 120.125 95.792969 120.101562 95.242188 120.101562 C 94.179688 120.101562 93.324219 120.195312 93.316406 120.195312 L 93.355469 120.566406 L 93.730469 120.566406 L 93.730469 113.019531 C 93.730469 112.8125 93.5625 112.644531 93.355469 112.644531 C 93.152344 112.644531 92.980469 112.8125 92.980469 113.019531"/><path fill="#281516" d="M 82.648438 127.609375 L 82.609375 127.980469 L 95.085938 129.359375 L 95.128906 128.984375 L 94.804688 128.796875 L 94.789062 128.824219 C 94.6875 128.988281 94.148438 129.800781 93.183594 130.5625 C 92.222656 131.320312 90.847656 132.027344 89.039062 132.027344 C 88.910156 132.027344 88.777344 132.027344 88.644531 132.015625 C 86.21875 131.878906 84.847656 130.761719 84.035156 129.671875 C 83.628906 129.125 83.371094 128.585938 83.21875 128.183594 C 83.140625 127.980469 83.089844 127.8125 83.058594 127.703125 L 83.023438 127.574219 L 83.019531 127.542969 L 83.019531 127.535156 L 82.648438 127.609375 L 82.609375 127.980469 L 82.648438 127.609375 L 82.28125 127.683594 C 82.289062 127.714844 82.523438 128.890625 83.433594 130.121094 C 84.335938 131.347656 85.953125 132.625 88.601562 132.765625 C 88.75 132.777344 88.894531 132.777344 89.039062 132.777344 C 91.183594 132.777344 92.800781 131.875 93.855469 130.980469 C 94.914062 130.085938 95.4375 129.199219 95.453125 129.175781 C 95.515625 129.066406 95.519531 128.929688 95.464844 128.820312 C 95.40625 128.703125 95.292969 128.628906 95.167969 128.613281 L 82.691406 127.238281 C 82.574219 127.222656 82.453125 127.265625 82.375 127.355469 C 82.292969 127.441406 82.261719 127.566406 82.28125 127.683594 L 82.648438 127.609375"/><path fill="#281516" d="M 77.5625 107.15625 L 77.574219 107.144531 C 77.75 107.015625 79.433594 105.859375 81.625 105.863281 C 83.003906 105.867188 84.582031 106.300781 86.207031 107.742188 C 86.363281 107.878906 86.601562 107.863281 86.738281 107.707031 C 86.875 107.554688 86.859375 107.316406 86.707031 107.179688 C 84.957031 105.621094 83.164062 105.109375 81.625 105.113281 C 79.007812 105.121094 77.144531 106.539062 77.109375 106.558594 C 76.945312 106.683594 76.914062 106.921875 77.039062 107.085938 C 77.160156 107.25 77.398438 107.285156 77.5625 107.15625"/><path fill="#281516" d="M 94.617188 107.15625 L 94.632812 107.144531 C 94.808594 107.015625 96.488281 105.859375 98.683594 105.863281 C 100.058594 105.867188 101.640625 106.300781 103.265625 107.742188 C 103.421875 107.878906 103.65625 107.863281 103.792969 107.707031 C 103.929688 107.554688 103.917969 107.316406 103.761719 107.179688 C 102.015625 105.621094 100.222656 105.109375 98.683594 105.113281 C 96.0625 105.121094 94.199219 106.539062 94.167969 106.558594 C 94 106.683594 93.96875 106.921875 94.09375 107.085938 C 94.21875 107.25 94.453125 107.285156 94.617188 107.15625"/><path fill="#E6B923" d="M 109.410156 156.019531 L 121.4375 156.578125 C 127.6875 156.867188 133.3125 160.453125 136.210938 166.003906 L 157.785156 207.285156 C 159.835938 210.691406 163.929688 212.277344 167.742188 211.140625 L 215.332031 196.945312 L 229.640625 217.65625 L 181.71875 248.347656 C 159.265625 256.390625 134.195312 248.949219 119.742188 229.949219 L 93.976562 196.078125 L 109.410156 156.019531"/><path fill="#281516" d="M 22.28125 222.828125 C 22.300781 222.867188 24.941406 231.109375 33.425781 235.957031 C 33.605469 236.058594 33.835938 235.996094 33.9375 235.816406 C 34.039062 235.636719 33.976562 235.40625 33.796875 235.304688 C 29.6875 232.960938 26.984375 229.777344 25.308594 227.183594 C 24.46875 225.882812 23.890625 224.730469 23.523438 223.910156 C 23.335938 223.496094 23.203125 223.164062 23.117188 222.9375 C 23.074219 222.828125 23.046875 222.738281 23.023438 222.683594 L 22.996094 222.597656 C 22.933594 222.402344 22.71875 222.292969 22.523438 222.355469 C 22.328125 222.421875 22.21875 222.632812 22.28125 222.828125 Z M 156.695312 261.300781 L 156.695312 284.988281 C 156.695312 285.195312 156.859375 285.363281 157.066406 285.363281 C 157.277344 285.363281 157.441406 285.195312 157.441406 284.988281 L 157.441406 261.300781 C 157.441406 261.09375 157.277344 260.925781 157.066406 260.925781 C 156.859375 260.925781 156.695312 261.09375 156.695312 261.300781 Z M 189.957031 281.492188 L 193.808594 278.949219 C 193.980469 278.835938 194.03125 278.601562 193.917969 278.429688 C 193.800781 278.257812 193.566406 278.210938 193.398438 278.320312 L 189.542969 280.863281 C 189.371094 280.976562 189.324219 281.210938 189.4375 281.382812 C 189.554688 281.554688 189.785156 281.605469 189.957031 281.492188 Z M 193.75 273.917969 L 197.601562 271.375 C 197.773438 271.261719 197.820312 271.027344 197.707031 270.855469 C 197.59375 270.683594 197.359375 270.636719 197.1875 270.75 L 193.335938 273.289062 C 193.164062 273.402344 193.117188 273.636719 193.230469 273.808594 C 193.34375 273.984375 193.578125 274.03125 193.75 273.917969 Z M 197.601562 266.34375 L 201.453125 263.804688 C 201.625 263.691406 201.671875 263.457031 201.558594 263.28125 C 201.441406 263.109375 201.210938 263.0625 201.039062 263.175781 L 197.1875 265.714844 C 197.015625 265.832031 196.96875 266.0625 197.082031 266.238281 C 197.195312 266.410156 197.429688 266.457031 197.601562 266.34375 Z M 185.109375 257.613281 C 185.113281 257.613281 185.316406 257.585938 185.683594 257.546875 C 186.78125 257.429688 189.296875 257.195312 191.796875 257.195312 C 192.871094 257.195312 193.945312 257.242188 194.894531 257.355469 C 195.847656 257.464844 196.675781 257.652344 197.238281 257.914062 C 197.425781 258 197.648438 257.917969 197.734375 257.730469 C 197.820312 257.542969 197.738281 257.320312 197.550781 257.230469 C 196.863281 256.917969 195.976562 256.726562 194.988281 256.609375 C 193.992188 256.492188 192.894531 256.445312 191.796875 256.445312 C 188.402344 256.445312 185.027344 256.867188 185.019531 256.867188 C 184.8125 256.890625 184.667969 257.078125 184.691406 257.285156 C 184.71875 257.492188 184.902344 257.640625 185.109375 257.613281 Z M 242.351562 186.964844 L 249.492188 202.851562 C 249.574219 203.042969 249.796875 203.125 249.984375 203.039062 C 250.175781 202.953125 250.261719 202.730469 250.171875 202.542969 L 243.039062 186.660156 C 242.949219 186.46875 242.730469 186.386719 242.539062 186.46875 C 242.351562 186.554688 242.269531 186.777344 242.351562 186.964844 Z M 233.484375 187.523438 L 233.5 187.546875 C 233.648438 187.824219 234.921875 190.332031 234.917969 193.242188 C 234.917969 194.792969 234.5625 196.453125 233.503906 197.984375 C 233.386719 198.15625 233.429688 198.386719 233.597656 198.503906 C 233.769531 198.625 234 198.582031 234.117188 198.410156 C 235.28125 196.734375 235.667969 194.90625 235.667969 193.242188 C 235.664062 189.910156 234.152344 187.1875 234.140625 187.160156 C 234.039062 186.976562 233.8125 186.914062 233.628906 187.011719 C 233.453125 187.113281 233.382812 187.339844 233.484375 187.523438 Z M 210.828125 198.410156 L 225.789062 220.136719 C 225.90625 220.304688 226.140625 220.351562 226.3125 220.234375 C 226.480469 220.113281 226.523438 219.882812 226.40625 219.710938 L 211.445312 197.984375 C 211.328125 197.8125 211.09375 197.773438 210.921875 197.890625 C 210.753906 198.007812 210.710938 198.242188 210.828125 198.410156 Z M 128.949219 190.472656 L 128.953125 190.554688 C 128.953125 191.023438 128.925781 193.328125 128.488281 196.160156 C 128.046875 198.984375 127.1875 202.335938 125.558594 204.878906 C 125.449219 205.050781 125.5 205.285156 125.671875 205.394531 C 125.847656 205.507812 126.082031 205.457031 126.191406 205.28125 C 127.910156 202.589844 128.777344 199.15625 129.226562 196.273438 C 129.675781 193.386719 129.699219 191.046875 129.699219 190.554688 L 129.699219 190.460938 C 129.699219 190.253906 129.527344 190.085938 129.320312 190.089844 C 129.113281 190.09375 128.949219 190.261719 128.949219 190.472656 Z M 124.773438 180.785156 L 126.230469 237.777344 C 126.234375 237.984375 126.40625 238.148438 126.617188 238.144531 C 126.820312 238.140625 126.984375 237.964844 126.976562 237.757812 L 125.519531 180.765625 C 125.511719 180.558594 125.34375 180.394531 125.136719 180.398438 C 124.929688 180.40625 124.765625 180.578125 124.773438 180.785156 Z M 87.710938 253.058594 C 85.449219 250.867188 82.738281 250.273438 80.5 250.273438 C 77.832031 250.277344 75.792969 251.101562 75.765625 251.109375 C 75.574219 251.191406 75.480469 251.40625 75.558594 251.601562 C 75.632812 251.789062 75.855469 251.882812 76.046875 251.808594 L 76.125 251.777344 C 76.519531 251.628906 78.296875 251.023438 80.5 251.023438 C 82.617188 251.027344 85.101562 251.574219 87.191406 253.597656 C 87.339844 253.742188 87.578125 253.738281 87.71875 253.589844 C 87.863281 253.4375 87.859375 253.203125 87.710938 253.058594 Z M 87.550781 252.96875 C 86.652344 252.714844 85.78125 252.605469 84.953125 252.609375 C 82.3125 252.609375 80.109375 253.707031 78.570312 254.789062 C 77.027344 255.871094 76.140625 256.949219 76.125 256.96875 C 75.992188 257.128906 76.015625 257.363281 76.179688 257.496094 C 76.335938 257.628906 76.574219 257.605469 76.703125 257.445312 L 76.738281 257.40625 C 76.925781 257.191406 77.839844 256.167969 79.28125 255.210938 C 80.722656 254.25 82.679688 253.355469 84.953125 253.355469 C 85.71875 253.359375 86.515625 253.460938 87.351562 253.691406 C 87.550781 253.746094 87.753906 253.628906 87.8125 253.429688 C 87.867188 253.226562 87.75 253.023438 87.550781 252.96875 Z M 57.984375 176.285156 L 87.101562 253.460938 C 87.148438 253.589844 87.265625 253.683594 87.398438 253.699219 L 127.09375 259.273438 C 127.300781 259.300781 127.488281 259.160156 127.515625 258.953125 C 127.546875 258.75 127.402344 258.558594 127.195312 258.527344 L 87.722656 252.988281 L 58.683594 176.019531 C 58.609375 175.824219 58.394531 175.726562 58.199219 175.800781 C 58.007812 175.875 57.910156 176.089844 57.984375 176.285156 Z M 82.117188 284.613281 L 67.714844 284.613281 C 59.324219 284.613281 51.773438 279.515625 48.625 271.730469 L 24.359375 211.769531 C 24.285156 211.578125 24.066406 211.484375 23.871094 211.5625 C 23.683594 211.640625 23.589844 211.859375 23.667969 212.054688 L 47.925781 272.011719 C 51.195312 280.082031 59.019531 285.363281 67.714844 285.363281 L 82.117188 285.363281 C 82.324219 285.363281 82.492188 285.195312 82.492188 284.988281 C 82.492188 284.78125 82.324219 284.613281 82.117188 284.613281"/><path fill="#F57586" d="M 98.953125 155.714844 C 98.953125 159.027344 89.125 161.710938 77 161.710938 C 64.875 161.710938 55.042969 159.027344 55.042969 155.714844 C 55.042969 152.40625 64.875 149.722656 77 149.722656 C 89.125 149.722656 98.953125 152.40625 98.953125 155.714844"/><path fill="#281516" d="M 84.375 114.210938 C 84.375 115.609375 83.503906 116.742188 82.429688 116.742188 C 81.355469 116.742188 80.488281 115.609375 80.488281 114.210938 C 80.488281 112.8125 81.355469 111.679688 82.429688 111.679688 C 83.503906 111.679688 84.375 112.8125 84.375 114.210938"/><path fill="#281516" d="M 101.035156 114.210938 C 101.035156 115.609375 100.164062 116.742188 99.09375 116.742188 C 98.019531 116.742188 97.148438 115.609375 97.148438 114.210938 C 97.148438 112.8125 98.019531 111.679688 99.09375 111.679688 C 100.164062 111.679688 101.035156 112.8125 101.035156 114.210938"/><path fill="#F57586" d="M 49.332031 118.835938 C 50.132812 124.324219 53.894531 128.316406 57.734375 127.75 C 61.574219 127.1875 64.035156 122.28125 63.234375 116.796875 C 62.429688 111.308594 58.667969 107.316406 54.828125 107.878906 C 50.988281 108.445312 48.527344 113.347656 49.332031 118.835938"/><path fill="#281516" d="M 59.128906 113.253906 C 59.117188 113.234375 58.796875 112.867188 58.242188 112.492188 C 57.683594 112.125 56.882812 111.742188 55.90625 111.742188 C 55.34375 111.742188 54.730469 111.867188 54.101562 112.1875 C 53.476562 112.503906 52.878906 113.125 52.421875 113.984375 C 51.96875 114.847656 51.664062 115.949219 51.664062 117.234375 C 51.664062 117.632812 51.695312 118.050781 51.753906 118.480469 C 51.980469 120.015625 52.554688 121.332031 53.265625 122.28125 C 53.980469 123.226562 54.820312 123.839844 55.691406 123.851562 C 55.769531 123.851562 55.847656 123.847656 55.921875 123.835938 C 56.125 123.804688 56.269531 123.613281 56.242188 123.410156 C 56.210938 123.203125 56.023438 123.0625 55.816406 123.09375 L 55.691406 123.101562 C 55.21875 123.113281 54.488281 122.675781 53.863281 121.832031 C 53.238281 120.992188 52.703125 119.785156 52.496094 118.371094 C 52.4375 117.976562 52.414062 117.597656 52.414062 117.234375 C 52.414062 116.070312 52.691406 115.082031 53.085938 114.332031 C 53.480469 113.582031 53.996094 113.074219 54.4375 112.855469 C 54.96875 112.589844 55.457031 112.492188 55.90625 112.492188 C 56.679688 112.492188 57.347656 112.796875 57.824219 113.117188 C 58.0625 113.277344 58.253906 113.4375 58.378906 113.554688 L 58.523438 113.695312 L 58.554688 113.734375 L 58.5625 113.742188 C 58.695312 113.898438 58.933594 113.914062 59.09375 113.78125 C 59.246094 113.644531 59.265625 113.40625 59.128906 113.253906"/><g clip-path="url(#b)"><path fill="#F57586" d="M 307.429688 278.34375 L 278.277344 278.34375 L 278.277344 302.054688 L 307.429688 302.054688 L 307.429688 278.34375"/></g><path fill="#281516" d="M 277.738281 278.300781 C 277.738281 278.296875 277.703125 278.015625 277.648438 277.476562 C 277.492188 275.875 277.175781 272.03125 277.175781 267.097656 C 277.175781 260.964844 277.664062 253.144531 279.550781 245.828125 C 281.433594 238.503906 284.707031 231.703125 290.226562 227.5625 C 290.390625 227.441406 290.425781 227.203125 290.300781 227.039062 C 290.175781 226.871094 289.941406 226.839844 289.777344 226.964844 C 284.054688 231.265625 280.730469 238.230469 278.824219 245.640625 C 276.917969 253.050781 276.425781 260.929688 276.425781 267.097656 C 276.425781 273.71875 276.992188 278.378906 276.992188 278.390625 C 277.019531 278.597656 277.203125 278.742188 277.410156 278.71875 C 277.617188 278.695312 277.757812 278.507812 277.738281 278.300781"/><path fill="#281516" d="M 307.804688 278.34375 L 307.804688 250.878906 C 307.804688 250.675781 307.632812 250.503906 307.429688 250.503906 C 307.222656 250.503906 307.054688 250.675781 307.054688 250.878906 L 307.054688 278.34375 C 307.054688 278.554688 307.222656 278.71875 307.429688 278.71875 C 307.632812 278.71875 307.804688 278.554688 307.804688 278.34375"/><g clip-path="url(#c)"><path fill="#B43F39" d="M 248.089844 302.054688 L 0.5 302.054688 L 0.5 285.007812 L 248.089844 285.007812 L 248.089844 302.054688"/></g><path fill="#5CADE4" d="M 231.441406 270.53125 L 115.996094 270.53125 L 112.175781 284.992188 L 235.269531 284.992188 L 231.441406 270.53125"/><path fill="#281516" d="M 115.648438 270.664062 L 121.230469 285.125 C 121.304688 285.316406 121.519531 285.414062 121.714844 285.339844 C 121.90625 285.265625 122.003906 285.046875 121.925781 284.855469 L 116.347656 270.394531 C 116.273438 270.203125 116.054688 270.105469 115.863281 270.183594 C 115.667969 270.253906 115.574219 270.472656 115.648438 270.664062"/><g clip-path="url(#d)"><path fill="#E6B923" d="M 330.480469 302.046875 C 319.621094 302.050781 311.394531 292.261719 313.226562 281.546875 C 317.136719 258.699219 326.894531 224.933594 350.414062 224.933594 C 374.757812 224.933594 375.746094 261.09375 373.953125 283.882812 C 373.148438 294.125 364.648438 302.035156 354.390625 302.039062 L 330.480469 302.046875"/></g><path fill="#281516" d="M 361.660156 231.683594 C 361.625 231.667969 360.566406 231.257812 358.738281 231.257812 C 355.21875 231.25 348.886719 232.804688 341.644531 241.535156 C 334.402344 250.261719 326.214844 266.148438 318.859375 294.898438 C 318.808594 295.101562 318.929688 295.304688 319.132812 295.355469 C 319.332031 295.40625 319.535156 295.289062 319.585938 295.085938 C 326.917969 266.402344 335.082031 250.605469 342.222656 242.015625 C 349.367188 233.417969 355.445312 232.007812 358.738281 232.003906 C 359.597656 232.007812 360.265625 232.101562 360.71875 232.195312 C 360.945312 232.246094 361.117188 232.292969 361.230469 232.324219 L 361.355469 232.371094 L 361.382812 232.378906 L 361.386719 232.382812 C 361.578125 232.453125 361.796875 232.359375 361.871094 232.171875 C 361.949219 231.976562 361.855469 231.757812 361.660156 231.683594"/><path fill="#281516" d="M 150.984375 277.757812 C 150.984375 278.0625 151.023438 278.355469 151.101562 278.632812 C 151.183594 278.914062 151.292969 279.171875 151.433594 279.417969 C 151.578125 279.664062 151.746094 279.886719 151.949219 280.085938 C 152.148438 280.285156 152.367188 280.453125 152.613281 280.601562 C 152.855469 280.742188 153.117188 280.855469 153.394531 280.929688 C 153.675781 281.011719 153.964844 281.046875 154.269531 281.046875 C 154.617188 281.046875 154.949219 280.996094 155.265625 280.894531 C 155.578125 280.789062 155.871094 280.648438 156.136719 280.46875 L 156.300781 280.390625 L 156.484375 280.367188 C 156.589844 280.367188 156.679688 280.382812 156.753906 280.421875 C 156.835938 280.457031 156.90625 280.507812 156.964844 280.566406 L 157.019531 280.621094 C 156.660156 280.964844 156.242188 281.234375 155.777344 281.433594 C 155.308594 281.625 154.804688 281.726562 154.269531 281.726562 C 153.71875 281.726562 153.207031 281.621094 152.730469 281.414062 C 152.25 281.207031 151.832031 280.921875 151.472656 280.5625 C 151.113281 280.203125 150.832031 279.78125 150.625 279.300781 C 150.414062 278.824219 150.3125 278.308594 150.3125 277.757812 C 150.3125 277.207031 150.414062 276.695312 150.625 276.210938 C 150.832031 275.734375 151.113281 275.3125 151.472656 274.949219 C 151.832031 274.59375 152.25 274.308594 152.730469 274.101562 C 153.207031 273.894531 153.71875 273.789062 154.269531 273.789062 C 154.8125 273.789062 155.316406 273.890625 155.78125 274.085938 C 156.246094 274.28125 156.660156 274.554688 157.019531 274.90625 L 156.964844 274.953125 C 156.902344 275.019531 156.828125 275.070312 156.75 275.105469 C 156.671875 275.140625 156.578125 275.160156 156.484375 275.160156 C 156.359375 275.160156 156.242188 275.125 156.136719 275.054688 C 155.871094 274.867188 155.582031 274.726562 155.265625 274.621094 C 154.953125 274.519531 154.621094 274.46875 154.269531 274.46875 C 153.964844 274.46875 153.675781 274.503906 153.394531 274.585938 C 153.117188 274.660156 152.855469 274.773438 152.613281 274.914062 C 152.367188 275.0625 152.148438 275.230469 151.949219 275.429688 C 151.746094 275.628906 151.578125 275.851562 151.433594 276.097656 C 151.292969 276.339844 151.183594 276.605469 151.101562 276.882812 C 151.023438 277.164062 150.984375 277.453125 150.984375 277.757812"/><path fill="#281516" d="M 158.101562 277.757812 C 158.101562 278.0625 158.144531 278.355469 158.222656 278.632812 C 158.300781 278.914062 158.414062 279.171875 158.554688 279.417969 C 158.695312 279.664062 158.871094 279.886719 159.066406 280.085938 C 159.269531 280.285156 159.492188 280.453125 159.734375 280.601562 C 159.976562 280.742188 160.238281 280.855469 160.519531 280.929688 C 160.796875 281.011719 161.089844 281.046875 161.390625 281.046875 C 161.695312 281.046875 161.984375 281.011719 162.265625 280.929688 C 162.542969 280.855469 162.804688 280.742188 163.046875 280.601562 C 163.292969 280.453125 163.515625 280.285156 163.710938 280.085938 C 163.910156 279.886719 164.082031 279.664062 164.226562 279.417969 C 164.371094 279.171875 164.480469 278.914062 164.558594 278.632812 C 164.636719 278.355469 164.675781 278.0625 164.675781 277.757812 C 164.675781 277.300781 164.589844 276.878906 164.417969 276.480469 C 164.246094 276.078125 164.007812 275.734375 163.710938 275.433594 C 163.414062 275.136719 163.066406 274.902344 162.667969 274.726562 C 162.269531 274.554688 161.84375 274.46875 161.390625 274.46875 C 161.089844 274.46875 160.796875 274.503906 160.519531 274.585938 C 160.238281 274.660156 159.976562 274.773438 159.734375 274.914062 C 159.492188 275.0625 159.269531 275.230469 159.066406 275.429688 C 158.871094 275.628906 158.695312 275.851562 158.554688 276.097656 C 158.414062 276.339844 158.300781 276.605469 158.222656 276.882812 C 158.144531 277.164062 158.101562 277.453125 158.101562 277.757812 Z M 157.429688 277.757812 C 157.429688 277.207031 157.53125 276.695312 157.742188 276.210938 C 157.949219 275.734375 158.230469 275.3125 158.589844 274.949219 C 158.953125 274.59375 159.371094 274.308594 159.847656 274.101562 C 160.328125 273.894531 160.84375 273.789062 161.390625 273.789062 C 161.9375 273.789062 162.453125 273.894531 162.933594 274.101562 C 163.414062 274.308594 163.835938 274.59375 164.191406 274.949219 C 164.550781 275.3125 164.832031 275.734375 165.039062 276.210938 C 165.246094 276.695312 165.351562 277.207031 165.351562 277.757812 C 165.351562 278.308594 165.246094 278.824219 165.039062 279.300781 C 164.832031 279.78125 164.550781 280.203125 164.191406 280.5625 C 163.835938 280.921875 163.414062 281.207031 162.933594 281.414062 C 162.453125 281.621094 161.9375 281.726562 161.390625 281.726562 C 160.84375 281.726562 160.328125 281.621094 159.847656 281.414062 C 159.371094 281.207031 158.953125 280.921875 158.589844 280.5625 C 158.230469 280.203125 157.949219 279.78125 157.742188 279.300781 C 157.53125 278.824219 157.429688 278.308594 157.429688 277.757812"/><path fill="#281516" d="M 167.363281 278.65625 C 167.363281 278.988281 167.421875 279.300781 167.550781 279.589844 C 167.675781 279.878906 167.847656 280.132812 168.0625 280.351562 C 168.28125 280.566406 168.535156 280.738281 168.824219 280.863281 C 169.113281 280.988281 169.421875 281.054688 169.757812 281.054688 C 170.082031 281.054688 170.390625 280.988281 170.683594 280.863281 C 170.972656 280.738281 171.222656 280.566406 171.441406 280.351562 C 171.65625 280.132812 171.828125 279.878906 171.953125 279.589844 C 172.082031 279.300781 172.140625 278.988281 172.140625 278.65625 L 172.140625 273.882812 L 172.824219 273.882812 L 172.824219 278.65625 C 172.824219 279.082031 172.746094 279.480469 172.585938 279.851562 C 172.421875 280.226562 172.203125 280.554688 171.925781 280.832031 C 171.648438 281.109375 171.324219 281.328125 170.953125 281.492188 C 170.578125 281.648438 170.179688 281.730469 169.757812 281.730469 C 169.332031 281.730469 168.9375 281.648438 168.5625 281.492188 C 168.191406 281.328125 167.863281 281.109375 167.585938 280.832031 C 167.304688 280.554688 167.085938 280.226562 166.925781 279.851562 C 166.765625 279.480469 166.6875 279.082031 166.6875 278.65625 L 166.6875 273.882812 L 167.363281 273.882812 L 167.363281 278.65625"/><path fill="#281516" d="M 180.691406 281.636719 L 180.019531 281.636719 L 175.347656 274.9375 L 175.304688 274.863281 L 175.269531 274.773438 L 175.238281 274.679688 L 175.238281 281.636719 L 174.5625 281.636719 L 174.5625 273.882812 L 175.035156 273.882812 C 175.179688 273.882812 175.292969 273.902344 175.375 273.9375 C 175.460938 273.972656 175.53125 274.03125 175.589844 274.109375 L 179.871094 280.246094 L 179.9375 280.367188 L 179.980469 280.484375 L 180.019531 280.609375 L 180.019531 273.882812 L 180.691406 273.882812 L 180.691406 281.636719"/><path fill="#281516" d="M 185.53125 274.902344 C 185.449219 274.84375 185.378906 274.789062 185.3125 274.738281 C 185.25 274.6875 185.183594 274.644531 185.113281 274.609375 C 185.042969 274.574219 184.957031 274.542969 184.867188 274.519531 C 184.773438 274.5 184.65625 274.488281 184.511719 274.488281 C 184.300781 274.488281 184.105469 274.523438 183.917969 274.59375 C 183.730469 274.667969 183.566406 274.761719 183.425781 274.878906 C 183.28125 274.996094 183.167969 275.136719 183.085938 275.296875 C 183.003906 275.453125 182.960938 275.621094 182.960938 275.800781 C 182.960938 276 182.984375 276.167969 183.039062 276.296875 C 183.089844 276.425781 183.179688 276.539062 183.304688 276.640625 C 183.425781 276.738281 183.589844 276.832031 183.796875 276.914062 C 184 277 184.25 277.09375 184.550781 277.199219 C 184.707031 277.257812 184.855469 277.3125 184.992188 277.363281 C 185.128906 277.414062 185.261719 277.464844 185.382812 277.515625 C 185.503906 277.570312 185.617188 277.625 185.726562 277.683594 C 185.832031 277.746094 185.933594 277.8125 186.03125 277.886719 C 186.28125 278.082031 186.460938 278.320312 186.5625 278.601562 C 186.664062 278.882812 186.71875 279.191406 186.71875 279.527344 C 186.71875 279.867188 186.648438 280.171875 186.515625 280.441406 C 186.382812 280.710938 186.203125 280.941406 185.976562 281.132812 C 185.75 281.320312 185.484375 281.46875 185.179688 281.566406 C 184.875 281.667969 184.550781 281.71875 184.207031 281.71875 C 183.535156 281.71875 182.96875 281.519531 182.507812 281.117188 C 182.378906 281 182.273438 280.886719 182.183594 280.777344 C 182.097656 280.660156 182.027344 280.554688 181.972656 280.460938 L 182.054688 280.414062 C 182.171875 280.34375 182.285156 280.308594 182.394531 280.308594 C 182.480469 280.308594 182.5625 280.324219 182.644531 280.34375 C 182.722656 280.371094 182.792969 280.414062 182.855469 280.472656 C 183 280.613281 183.132812 280.71875 183.253906 280.789062 C 183.378906 280.863281 183.488281 280.917969 183.597656 280.953125 C 183.703125 280.988281 183.804688 281.011719 183.902344 281.015625 C 184.003906 281.023438 184.105469 281.027344 184.207031 281.03125 C 184.425781 281.039062 184.640625 281.015625 184.859375 280.957031 C 185.078125 280.902344 185.273438 280.8125 185.449219 280.6875 C 185.625 280.5625 185.765625 280.40625 185.878906 280.214844 C 185.984375 280.023438 186.042969 279.792969 186.042969 279.527344 C 186.042969 279.230469 185.996094 278.996094 185.914062 278.816406 C 185.824219 278.636719 185.707031 278.492188 185.554688 278.378906 C 185.398438 278.269531 185.214844 278.175781 185.007812 278.101562 C 184.796875 278.027344 184.578125 277.945312 184.332031 277.851562 C 184.027344 277.726562 183.75 277.613281 183.496094 277.511719 C 183.242188 277.40625 183.03125 277.277344 182.851562 277.136719 C 182.671875 276.996094 182.53125 276.820312 182.433594 276.609375 C 182.332031 276.398438 182.285156 276.132812 182.285156 275.800781 C 182.285156 275.496094 182.351562 275.21875 182.484375 274.976562 C 182.621094 274.730469 182.789062 274.519531 183 274.34375 C 183.210938 274.171875 183.449219 274.035156 183.714844 273.941406 C 183.980469 273.84375 184.246094 273.796875 184.511719 273.796875 C 184.738281 273.796875 184.945312 273.824219 185.132812 273.882812 C 185.316406 273.945312 185.484375 274.023438 185.636719 274.113281 C 185.792969 274.203125 185.929688 274.308594 186.054688 274.421875 C 186.179688 274.539062 186.292969 274.652344 186.398438 274.765625 L 186.230469 274.882812 L 186.082031 274.960938 C 186.027344 274.984375 185.960938 274.992188 185.878906 274.992188 C 185.746094 274.992188 185.628906 274.960938 185.53125 274.902344"/><path fill="#281516" d="M 192.59375 281.636719 L 187.980469 281.636719 L 187.980469 273.882812 L 192.59375 273.882812 L 192.59375 274.558594 L 188.65625 274.558594 L 188.65625 277.382812 L 191.84375 277.382812 L 191.84375 278.0625 L 188.65625 278.0625 L 188.65625 280.960938 L 192.59375 280.960938 L 192.59375 281.636719"/><path fill="#281516" d="M 194.101562 281.636719 L 194.101562 273.882812 L 194.777344 273.882812 L 194.777344 280.960938 L 198.324219 280.960938 L 198.324219 281.636719 L 194.101562 281.636719"/><path fill="#281516" d="M 198.800781 277.757812 C 198.800781 278.0625 198.835938 278.355469 198.917969 278.632812 C 198.996094 278.914062 199.105469 279.171875 199.25 279.417969 C 199.394531 279.664062 199.5625 279.886719 199.761719 280.085938 C 199.964844 280.285156 200.183594 280.453125 200.429688 280.601562 C 200.671875 280.742188 200.929688 280.855469 201.210938 280.929688 C 201.488281 281.011719 201.78125 281.046875 202.082031 281.046875 C 202.386719 281.046875 202.675781 281.011719 202.957031 280.929688 C 203.234375 280.855469 203.5 280.742188 203.742188 280.601562 C 203.988281 280.453125 204.210938 280.285156 204.410156 280.085938 C 204.605469 279.886719 204.777344 279.664062 204.921875 279.417969 C 205.0625 279.171875 205.175781 278.914062 205.253906 278.632812 C 205.328125 278.355469 205.371094 278.0625 205.371094 277.757812 C 205.371094 277.300781 205.28125 276.878906 205.109375 276.480469 C 204.9375 276.078125 204.699219 275.734375 204.40625 275.433594 C 204.105469 275.136719 203.757812 274.902344 203.363281 274.726562 C 202.964844 274.554688 202.535156 274.46875 202.082031 274.46875 C 201.78125 274.46875 201.488281 274.503906 201.210938 274.585938 C 200.929688 274.660156 200.671875 274.773438 200.429688 274.914062 C 200.183594 275.0625 199.964844 275.230469 199.761719 275.429688 C 199.5625 275.628906 199.394531 275.851562 199.25 276.097656 C 199.105469 276.339844 198.996094 276.605469 198.917969 276.882812 C 198.835938 277.164062 198.800781 277.453125 198.800781 277.757812 Z M 198.121094 277.757812 C 198.121094 277.207031 198.226562 276.695312 198.433594 276.210938 C 198.640625 275.734375 198.925781 275.3125 199.285156 274.949219 C 199.644531 274.59375 200.066406 274.308594 200.546875 274.101562 C 201.023438 273.894531 201.535156 273.789062 202.082031 273.789062 C 202.628906 273.789062 203.144531 273.894531 203.628906 274.101562 C 204.105469 274.308594 204.527344 274.59375 204.886719 274.949219 C 205.246094 275.3125 205.527344 275.734375 205.734375 276.210938 C 205.941406 276.695312 206.046875 277.207031 206.046875 277.757812 C 206.046875 278.308594 205.941406 278.824219 205.734375 279.300781 C 205.527344 279.78125 205.246094 280.203125 204.886719 280.5625 C 204.527344 280.921875 204.105469 281.207031 203.628906 281.414062 C 203.144531 281.621094 202.628906 281.726562 202.082031 281.726562 C 201.535156 281.726562 201.023438 281.621094 200.546875 281.414062 C 200.066406 281.207031 199.644531 280.921875 199.285156 280.5625 C 198.925781 280.203125 198.640625 279.78125 198.433594 279.300781 C 198.226562 278.824219 198.121094 278.308594 198.121094 277.757812"/><path fill="#281516" d="M 208.257812 274.558594 L 208.257812 277.546875 L 210.296875 277.546875 C 210.503906 277.546875 210.695312 277.507812 210.875 277.429688 C 211.0625 277.351562 211.21875 277.246094 211.351562 277.113281 C 211.488281 276.976562 211.597656 276.816406 211.675781 276.632812 C 211.753906 276.453125 211.796875 276.257812 211.796875 276.050781 C 211.796875 275.847656 211.753906 275.652344 211.675781 275.476562 C 211.597656 275.292969 211.488281 275.136719 211.351562 275 C 211.21875 274.867188 211.0625 274.757812 210.875 274.679688 C 210.695312 274.597656 210.503906 274.558594 210.296875 274.558594 Z M 208.257812 281.636719 L 207.585938 281.636719 L 207.585938 273.882812 L 210.296875 273.882812 C 210.597656 273.882812 210.882812 273.941406 211.144531 274.054688 C 211.410156 274.164062 211.636719 274.324219 211.835938 274.519531 C 212.027344 274.714844 212.1875 274.945312 212.296875 275.207031 C 212.410156 275.472656 212.46875 275.753906 212.46875 276.050781 C 212.46875 276.320312 212.421875 276.578125 212.335938 276.828125 C 212.246094 277.078125 212.121094 277.300781 211.960938 277.5 C 211.804688 277.699219 211.609375 277.859375 211.386719 277.988281 C 211.167969 278.117188 210.921875 278.195312 210.65625 278.222656 L 213.21875 281.636719 L 212.902344 281.636719 C 212.527344 281.636719 212.257812 281.5 212.082031 281.226562 L 209.828125 278.222656 L 208.257812 278.222656 L 208.257812 281.636719"/><g clip-path="url(#e)"><path fill="#281516" d="M 340.375 302.054688 L 345.480469 283.667969 C 345.796875 282.515625 346.84375 281.71875 348.039062 281.71875 L 356.066406 281.71875 C 357.792969 281.71875 359.0625 283.347656 358.640625 285.027344 L 354.390625 302.039062 L 340.375 302.054688"/></g></svg>