<svg xmlns="http://www.w3.org/2000/svg" width="375" viewBox="0 0 375 375" height="375" version="1.0"><defs><clipPath id="a"><path d="M 172.863281 179 L 375 179 L 375 268.640625 L 172.863281 268.640625 Z M 172.863281 179"/></clipPath><clipPath id="b"><path d="M 69 102.273438 L 117 102.273438 L 117 154 L 69 154 Z M 69 102.273438"/></clipPath><clipPath id="c"><path d="M 0.015625 104.253906 L 375 104.253906 L 375 272.488281 L 0.015625 272.488281 Z M 0.015625 104.253906"/></clipPath><clipPath id="d"><path d="M 0.015625 104.253906 L 212.558594 104.253906 L 212.558594 272.488281 L 0.015625 272.488281 Z M 0.015625 104.253906"/></clipPath><clipPath id="e"><path d="M 0.015625 104.253906 L 375 104.253906 L 375 272.488281 L 0.015625 272.488281 Z M 0.015625 104.253906"/></clipPath></defs><path fill="#293A82" d="M 55.816406 125.222656 C 55.816406 125.222656 45.828125 136.601562 36.269531 142.25 C 27.710938 147.3125 2.171875 174.445312 30.867188 197.492188 C 56.855469 207.640625 54.570312 185.449219 59.765625 180.464844 C 64.964844 175.480469 74.738281 177.347656 74.113281 171.121094 C 73.488281 164.890625 63.71875 147.234375 66.628906 143.289062 C 69.539062 139.347656 55.816406 125.222656 55.816406 125.222656"/><path fill="#F68395" d="M 292.808594 216.019531 L 278.222656 192.460938 L 211.734375 205.640625 L 194.921875 230.523438 L 289.285156 219.488281 L 292.808594 216.019531"/><path fill="#B54041" d="M 92.289062 113.425781 C 92.289062 113.425781 122.503906 131.789062 104.117188 146.023438 C 104.117188 146.023438 110.816406 153.996094 121.222656 158.40625 C 121.222656 158.40625 129.484375 171.21875 124.78125 183.175781 C 124.78125 183.175781 62.25 154.523438 53.753906 138.734375 C 53.410156 138.097656 53.195312 137.394531 53.089844 136.679688 C 51.273438 124.277344 57.464844 122.136719 58.511719 121.683594 C 59.257812 121.363281 77.613281 122.964844 77.613281 122.964844 L 92.289062 113.425781"/><path fill="#B54041" d="M 139.261719 190.96875 C 139.261719 190.96875 146.820312 168.789062 158.789062 166.898438 C 158.789062 166.898438 171.703125 183.25 177.847656 183.175781 C 177.847656 183.175781 170.757812 193.484375 172.960938 207.640625 L 139.261719 190.96875"/><path fill="#B54041" d="M 186.144531 184.941406 C 186.144531 184.941406 224.835938 124.671875 239.667969 117.863281 C 254.503906 111.058594 265.328125 122.070312 267.933594 131.480469 C 270.539062 140.890625 275.265625 179.878906 274.867188 181.878906 L 260.621094 183.839844 C 260.621094 183.839844 252.933594 159.625 252.472656 148.40625 C 252.011719 137.1875 242.867188 178.640625 230.160156 184.941406 C 217.453125 191.238281 200.222656 194.847656 200.222656 194.847656 L 186.144531 184.941406"/><g clip-path="url(#a)"><path fill="#B54041" d="M 372.578125 240.117188 C 374.378906 239.574219 375.773438 241.722656 374.539062 243.140625 C 367.242188 251.519531 351.828125 260.804688 338.089844 267.757812 C 332.863281 270.402344 331.816406 263.566406 331.480469 262.101562 C 331.144531 260.636719 331.441406 256.050781 328.382812 253.0625 C 296.554688 231.398438 280.554688 203.214844 280.554688 203.214844 C 257.109375 212.675781 209.039062 224.976562 209.039062 224.976562 L 172.960938 207.640625 C 172.960938 207.640625 206.050781 179.527344 246.417969 179.304688 C 286.785156 179.085938 298.03125 183.269531 304.210938 191.644531 C 304.210938 191.644531 331.574219 241.101562 341.863281 244.199219 C 349.503906 246.503906 365.078125 242.386719 372.578125 240.117188"/></g><path fill="#7F333D" d="M 144.480469 181.4375 C 144.480469 181.4375 164.160156 203.8125 172.960938 207.640625 C 181.769531 211.472656 172.960938 207.640625 172.960938 207.640625 L 139.261719 190.96875 C 139.261719 190.96875 140.039062 187.660156 144.480469 181.4375"/><path fill="#7F333D" d="M 124.855469 171.753906 C 124.855469 171.753906 78.292969 154.078125 53.753906 138.734375 C 53.753906 138.734375 58.171875 150.164062 96.296875 168.957031 L 124.78125 183.175781 C 124.78125 183.175781 125.933594 174.652344 124.855469 171.753906"/><path fill="#7F333D" d="M 280.554688 203.214844 C 280.554688 203.214844 203.277344 219.191406 190.820312 217.078125 L 204.753906 226.355469 C 204.753906 226.355469 269.164062 211.066406 280.554688 203.214844"/><path fill="#7F333D" d="M 197.867188 191.855469 C 197.867188 191.855469 219.375 181.847656 235.691406 179.9375 L 241.890625 168.273438 C 241.890625 168.273438 209.730469 182.917969 194.046875 188.707031 C 178.367188 194.496094 194.046875 188.707031 194.046875 188.707031 L 197.867188 191.855469"/><path fill="#7F333D" d="M 270.371094 179.992188 L 259.273438 179.402344 C 259.273438 179.402344 251.511719 154.390625 251.898438 144.671875 L 254.238281 137.382812 C 254.238281 137.382812 255.457031 160.609375 270.371094 179.992188"/><path fill="#F8A30E" d="M 124.78125 183.175781 C 124.78125 183.175781 126.789062 169.636719 121.222656 158.40625 C 121.222656 158.40625 156.359375 145.285156 158.789062 166.898438 C 158.789062 166.898438 145.59375 175.605469 139.261719 190.96875 L 124.78125 183.175781"/><path fill="#F8A30E" d="M 177.847656 183.175781 C 177.847656 183.175781 169.324219 191.113281 172.960938 207.640625 C 172.960938 207.640625 192.304688 194.472656 197.867188 191.855469 C 197.867188 191.855469 188.070312 183.128906 177.847656 183.175781"/><path stroke-linecap="round" transform="matrix(.0827 0 0 -.0826 .014 272.49)" fill="none" d="M 938.296063 1810.107132 C 938.296063 1810.107132 1247.717662 1503.39716 1465.602234 1381.063103" stroke="#293982" stroke-width="15" stroke-miterlimit="10"/><path stroke-linecap="round" transform="matrix(.0827 0 0 -.0826 .014 272.49)" fill="none" d="M 1678.621835 986.87033 C 1678.621835 986.87033 1844.975502 1252.203301 1919.839375 1278.258989" stroke="#293982" stroke-width="15" stroke-miterlimit="10"/><path stroke-linecap="round" transform="matrix(.0827 0 0 -.0826 .014 272.49)" fill="none" d="M 2150.287853 1081.209891 C 2150.287853 1081.209891 2267.755647 1092.086131 2392.355582 976.135954" stroke="#293982" stroke-width="15" stroke-miterlimit="10"/><path stroke-linecap="round" transform="matrix(.0827 0 0 -.0826 .014 272.49)" fill="none" d="M 2849.001592 1119.513171 C 2849.001592 1119.513171 3024.471175 1432.086855 3073.971074 1635.567122" stroke="#293982" stroke-width="15" stroke-miterlimit="10"/><path fill="#293A82" d="M 58.511719 121.683594 C 58.511719 121.683594 61.800781 111.503906 69.527344 106.875 C 77.25 102.246094 98.75 103.9375 98.054688 110.472656 C 97.355469 117.007812 77.871094 123.695312 77.871094 123.695312 L 58.511719 121.683594"/><path fill="#7F333D" d="M 101.949219 120.996094 C 101.949219 120.996094 109.398438 121.960938 110.132812 125.222656 C 110.875 128.484375 107.984375 128.746094 106.140625 128.136719 C 104.292969 127.523438 101.949219 120.996094 101.949219 120.996094"/><path fill="#7F333D" d="M 100.761719 126.539062 C 101.714844 126.949219 101.886719 128.679688 101.144531 130.402344 C 100.398438 132.125 99.023438 133.191406 98.070312 132.78125 C 97.117188 132.371094 96.945312 130.640625 97.691406 128.917969 C 98.433594 127.195312 99.804688 126.128906 100.761719 126.539062"/><g clip-path="url(#b)"><path stroke-linecap="round" transform="matrix(.0827 0 0 -.0826 .014 272.49)" fill="none" d="M 1117.969359 1725.225171 C 1117.969359 1725.225171 1112.726526 1764.237771 1131.100057 1789.158548" stroke="#293982" stroke-width="20" stroke-miterlimit="10"/></g><path fill="#F68395" d="M 58.511719 151.371094 C 58.511719 151.371094 59.332031 153.183594 61.050781 156.238281 L 68.125 156.011719 L 58.511719 151.371094"/><path fill="#F68395" d="M 69.230469 156.640625 C 70.519531 159.984375 75.109375 172.496094 72.816406 174.546875 C 93.40625 200.492188 137.304688 237.527344 213.277344 226.179688 L 69.230469 156.640625"/><path fill="#F68395" d="M 69.175781 155.976562 L 68.125 156.011719 L 69.425781 156.640625 C 69.3125 156.34375 69.230469 156.121094 69.175781 155.976562"/><path fill="#F68395" d="M 69.175781 155.976562 L 69.230469 155.972656 C 69.097656 155.714844 69.09375 155.742188 69.175781 155.976562"/><path stroke-linecap="round" transform="matrix(.0827 0 0 -.0826 .014 272.49)" fill="none" d="M 2792.841879 629.704061 C 2792.841879 629.704061 3312.732512 772.986703 3392.177959 838.622448" stroke="#293982" stroke-width="15" stroke-miterlimit="10"/><g clip-path="url(#c)"><path stroke-linecap="round" transform="matrix(.0827 0 0 -.0826 .014 272.49)" fill="none" d="M 3418.675817 90.005762 L 707.328087 1466.228443" stroke="#293982" stroke-width="100" stroke-miterlimit="10"/></g><g clip-path="url(#d)"><path stroke-linecap="round" transform="matrix(.0827 0 0 -.0826 .014 272.49)" fill="none" d="M 1151.740859 1233.240464 L 49.99016 50.000114" stroke="#293982" stroke-width="100" stroke-miterlimit="10"/></g><g clip-path="url(#e)"><path stroke-linecap="round" transform="matrix(.0827 0 0 -.0826 .014 272.49)" fill="none" d="M 252.949208 254.520716 L 3516.778201 683.612033" stroke="#293982" stroke-width="100" stroke-miterlimit="10"/></g></svg>