<svg xmlns="http://www.w3.org/2000/svg" width="375" viewBox="0 0 375 375" height="375" version="1.0"><defs><clipPath id="a"><path d="M 0 65.453125 L 375 65.453125 L 375 309.203125 L 0 309.203125 Z M 0 65.453125"/></clipPath></defs><path fill="#F2BB29" d="M 362.59375 204.371094 L 345.976562 308.59375 L 220.585938 308.59375 L 213.210938 204.371094 Z M 362.59375 204.371094"/><path fill="#2256C3" d="M 324.675781 224.421875 L 323.675781 230.789062 C 322.929688 235.511719 318.855469 238.988281 314.070312 238.988281 L 264.246094 238.988281 C 258.875 238.988281 254.523438 234.640625 254.523438 229.28125 L 254.523438 222.917969 C 254.523438 217.554688 258.875 213.207031 264.246094 213.207031 L 315.070312 213.207031 C 321.042969 213.207031 325.601562 218.535156 324.675781 224.421875 Z M 297.007812 196.953125 L 332.722656 197.425781 L 295.574219 187.816406 L 295.574219 188.808594 L 201.316406 188.808594 L 201.316406 192.902344 C 201.316406 199.441406 206.621094 204.738281 213.167969 204.738281 L 297.007812 204.738281 Z M 297.007812 196.953125"/><path fill="#F2BB29" d="M 374.824219 197.925781 L 369.804688 202.929688 L 363.042969 204.738281 L 213.660156 204.738281 L 206.742188 203.171875 L 202.59375 197.925781 L 334.796875 197.925781 L 297.007812 188.808594 L 201.316406 188.808594 L 199.277344 179.695312 L 297.007812 179.695312 Z M 374.824219 197.925781"/><path fill="#4EBC9D" d="M 161.925781 204.371094 L 154.550781 308.59375 L 29.160156 308.59375 L 12.542969 204.371094 Z M 161.925781 204.371094"/><path fill="#2256C3" d="M 120.25 222.546875 L 120.25 228.914062 C 120.25 234.273438 115.898438 238.621094 110.53125 238.621094 L 60.707031 238.621094 C 55.917969 238.621094 51.84375 235.140625 51.101562 230.417969 L 50.101562 224.054688 C 49.171875 218.164062 53.734375 212.839844 59.703125 212.839844 L 110.53125 212.839844 C 115.898438 212.839844 120.25 217.1875 120.25 222.546875 Z M 78.578125 188.441406 L 12.542969 204.371094 L 162.566406 204.371094 C 169.027344 204.371094 174.269531 199.136719 174.269531 192.683594 L 174.269531 188.441406 Z M 78.578125 188.441406"/><path fill="#4EBC9D" d="M 78.578125 188.441406 L 40.789062 197.558594 L 172.988281 197.558594 L 168.839844 202.804688 L 161.925781 204.371094 L 12.542969 204.371094 L 5.78125 202.5625 L 0.761719 197.558594 L 78.578125 179.328125 L 176.308594 179.328125 L 174.269531 188.441406 Z M 78.578125 188.441406"/><path fill="#E95F52" d="M 93.761719 66.078125 L 94.648438 67.945312 C 96.132812 71.058594 99.28125 73.046875 102.738281 73.046875 L 102.886719 73.046875 L 118.929688 197.558594 L 255.015625 197.558594 L 272.164062 73.046875 C 275.835938 73.046875 279.136719 70.808594 280.492188 67.398438 L 281.015625 66.078125 Z M 227.171875 102.601562 C 227.171875 108.769531 222.160156 113.773438 215.984375 113.773438 L 159.433594 113.773438 C 153.257812 113.773438 148.246094 108.769531 148.246094 102.601562 L 148.246094 96.21875 C 148.246094 90.046875 153.257812 85.046875 159.433594 85.046875 L 215.984375 85.046875 C 222.160156 85.046875 227.171875 90.046875 227.171875 96.21875 Z M 227.171875 102.601562"/><path fill="#2256C3" d="M 148.246094 102.601562 L 227.171875 102.601562 C 227.171875 108.769531 222.160156 113.773438 215.984375 113.773438 L 159.433594 113.773438 C 153.257812 113.773438 148.246094 108.769531 148.246094 102.601562 Z M 148.246094 102.601562"/><g clip-path="url(#a)"><path fill="#333" d="M 43.554688 270.660156 C 43.554688 270.316406 43.835938 270.035156 44.179688 270.035156 L 126.050781 270.035156 C 126.398438 270.035156 126.679688 270.316406 126.679688 270.660156 C 126.679688 271.007812 126.398438 271.285156 126.050781 271.285156 L 44.179688 271.285156 C 43.835938 271.285156 43.554688 271.007812 43.554688 270.660156 Z M 44.179688 279.757812 L 126.050781 279.757812 C 126.398438 279.757812 126.679688 279.476562 126.679688 279.132812 C 126.679688 278.789062 126.398438 278.507812 126.050781 278.507812 L 44.179688 278.507812 C 43.835938 278.507812 43.554688 278.789062 43.554688 279.132812 C 43.554688 279.476562 43.835938 279.757812 44.179688 279.757812 Z M 44.179688 288.226562 L 126.050781 288.226562 C 126.398438 288.226562 126.679688 287.949219 126.679688 287.601562 C 126.679688 287.257812 126.398438 286.976562 126.050781 286.976562 L 44.179688 286.976562 C 43.835938 286.976562 43.554688 287.257812 43.554688 287.601562 C 43.554688 287.949219 43.835938 288.226562 44.179688 288.226562 Z M 49.484375 224.152344 C 49.398438 223.605469 49.355469 223.0625 49.355469 222.527344 C 49.355469 216.933594 53.902344 212.21875 59.703125 212.214844 L 110.53125 212.214844 C 116.246094 212.214844 120.875 216.84375 120.875 222.546875 L 120.875 228.914062 C 120.875 234.621094 116.246094 239.246094 110.53125 239.246094 L 60.707031 239.246094 C 55.613281 239.246094 51.277344 235.542969 50.484375 230.515625 Z M 79.203125 237.996094 L 110.53125 237.996094 C 113.042969 237.996094 115.3125 236.980469 116.960938 235.335938 C 118.609375 233.691406 119.625 231.421875 119.625 228.914062 L 119.625 222.546875 C 119.625 220.039062 118.609375 217.769531 116.960938 216.125 C 115.3125 214.480469 113.042969 213.464844 110.53125 213.464844 L 79.203125 213.464844 Z M 50.605469 222.527344 C 50.605469 223 50.640625 223.476562 50.71875 223.957031 L 51.71875 230.324219 C 52.414062 234.742188 56.226562 237.996094 60.707031 237.996094 L 77.953125 237.996094 L 77.953125 213.464844 L 59.703125 213.464844 C 57.152344 213.464844 54.882812 214.5 53.242188 216.152344 C 51.605469 217.808594 50.605469 220.074219 50.605469 222.527344 Z M 148.023438 102.601562 L 148.023438 96.21875 C 148.023438 89.703125 153.3125 84.421875 159.835938 84.421875 L 216.382812 84.421875 C 222.910156 84.421875 228.195312 89.703125 228.195312 96.21875 L 228.195312 102.601562 C 228.195312 109.117188 222.910156 114.394531 216.382812 114.394531 L 159.835938 114.394531 C 153.3125 114.394531 148.023438 109.117188 148.023438 102.601562 Z M 149.273438 101.976562 L 226.945312 101.976562 L 226.945312 96.21875 C 226.945312 93.300781 225.765625 90.667969 223.851562 88.757812 C 221.941406 86.851562 219.304688 85.671875 216.382812 85.671875 L 159.835938 85.671875 C 156.917969 85.671875 154.28125 86.851562 152.367188 88.757812 C 150.457031 90.667969 149.273438 93.300781 149.273438 96.21875 Z M 149.304688 103.226562 C 149.460938 105.886719 150.59375 108.285156 152.367188 110.058594 C 154.28125 111.96875 156.917969 113.148438 159.835938 113.148438 L 216.382812 113.148438 C 219.304688 113.148438 221.941406 111.96875 223.851562 110.058594 C 225.628906 108.285156 226.757812 105.886719 226.914062 103.226562 Z M 232.367188 162.128906 L 150.492188 162.128906 C 150.148438 162.128906 149.867188 162.410156 149.867188 162.753906 C 149.867188 163.097656 150.148438 163.378906 150.492188 163.378906 L 232.367188 163.378906 C 232.710938 163.378906 232.992188 163.097656 232.992188 162.753906 C 232.992188 162.410156 232.710938 162.128906 232.367188 162.128906 Z M 232.367188 153.660156 L 150.492188 153.660156 C 150.148438 153.660156 149.867188 153.9375 149.867188 154.28125 C 149.867188 154.628906 150.148438 154.90625 150.492188 154.90625 L 232.367188 154.90625 C 232.710938 154.90625 232.992188 154.628906 232.992188 154.28125 C 232.992188 153.9375 232.710938 153.660156 232.367188 153.660156 Z M 232.367188 145.1875 L 150.492188 145.1875 C 150.148438 145.1875 149.867188 145.46875 149.867188 145.8125 C 149.867188 146.15625 150.148438 146.4375 150.492188 146.4375 L 232.367188 146.4375 C 232.710938 146.4375 232.992188 146.15625 232.992188 145.8125 C 232.992188 145.46875 232.710938 145.1875 232.367188 145.1875 Z M 374.636719 197.628906 C 374.625 197.71875 374.589844 197.800781 374.546875 197.875 C 374.542969 197.882812 374.542969 197.890625 374.539062 197.898438 L 374.117188 198.546875 C 371.601562 202.417969 367.363281 204.804688 362.769531 204.976562 L 346.234375 308.691406 C 346.1875 308.996094 345.925781 309.21875 345.617188 309.21875 L 220.226562 309.21875 C 220.207031 309.21875 220.191406 309.210938 220.175781 309.210938 C 220.132812 309.207031 220.089844 309.199219 220.050781 309.1875 C 220.015625 309.175781 219.984375 309.164062 219.957031 309.152344 C 219.917969 309.132812 219.886719 309.109375 219.851562 309.085938 C 219.824219 309.0625 219.800781 309.042969 219.777344 309.019531 C 219.75 308.988281 219.726562 308.957031 219.707031 308.925781 C 219.683594 308.894531 219.667969 308.863281 219.652344 308.828125 C 219.648438 308.8125 219.636719 308.800781 219.632812 308.789062 L 203.402344 258.699219 L 203.375 258.5625 L 197.894531 198.179688 L 176.878906 198.179688 L 171.398438 258.5625 L 171.371094 258.699219 L 155.144531 308.789062 C 155.140625 308.800781 155.128906 308.8125 155.125 308.828125 C 155.109375 308.863281 155.089844 308.894531 155.070312 308.925781 C 155.050781 308.957031 155.027344 308.988281 155 309.019531 C 154.976562 309.042969 154.953125 309.0625 154.921875 309.085938 C 154.890625 309.109375 154.859375 309.132812 154.820312 309.152344 C 154.789062 309.164062 154.757812 309.175781 154.726562 309.183594 C 154.6875 309.199219 154.644531 309.207031 154.601562 309.210938 C 154.585938 309.210938 154.570312 309.21875 154.550781 309.21875 L 29.160156 309.21875 C 28.851562 309.21875 28.589844 308.996094 28.539062 308.691406 L 12.007812 204.976562 C 7.414062 204.804688 3.171875 202.417969 0.660156 198.546875 L 0.234375 197.898438 C 0.230469 197.890625 0.234375 197.882812 0.230469 197.875 C 0.183594 197.800781 0.148438 197.71875 0.140625 197.628906 C 0.136719 197.617188 0.140625 197.609375 0.140625 197.597656 C 0.140625 197.578125 0.144531 197.558594 0.144531 197.539062 C 0.148438 197.453125 0.167969 197.375 0.203125 197.300781 C 0.207031 197.289062 0.203125 197.273438 0.210938 197.257812 C 0.214844 197.25 0.226562 197.246094 0.230469 197.238281 C 0.28125 197.15625 0.347656 197.085938 0.429688 197.03125 C 0.445312 197.023438 0.464844 197.019531 0.480469 197.007812 C 0.527344 196.988281 0.566406 196.960938 0.617188 196.949219 L 78.433594 178.71875 L 78.578125 178.703125 L 116.269531 178.703125 L 102.734375 73.65625 C 99.199219 73.507812 96.015625 71.421875 94.484375 68.210938 L 93.597656 66.347656 C 93.503906 66.152344 93.519531 65.925781 93.632812 65.746094 C 93.75 65.5625 93.949219 65.453125 94.164062 65.453125 L 281.417969 65.453125 C 281.625 65.453125 281.816406 65.558594 281.933594 65.726562 C 282.050781 65.898438 282.074219 66.117188 281.996094 66.308594 L 281.472656 67.628906 C 280.09375 71.105469 276.820312 73.4375 273.113281 73.648438 L 258.644531 178.703125 L 296.195312 178.703125 C 296.199219 178.703125 296.199219 178.703125 296.199219 178.703125 L 296.363281 178.703125 L 296.503906 178.71875 L 374.15625 196.949219 C 374.207031 196.960938 374.25 196.988281 374.292969 197.007812 C 374.3125 197.019531 374.328125 197.023438 374.34375 197.03125 C 374.429688 197.085938 374.496094 197.15625 374.546875 197.238281 C 374.550781 197.246094 374.558594 197.25 374.5625 197.257812 C 374.570312 197.273438 374.566406 197.289062 374.574219 197.300781 C 374.609375 197.375 374.625 197.453125 374.628906 197.539062 C 374.628906 197.558594 374.636719 197.578125 374.632812 197.597656 C 374.632812 197.609375 374.636719 197.617188 374.636719 197.628906 Z M 296.824219 187.910156 L 334.34375 196.933594 L 368.625 196.933594 L 296.824219 180.078125 Z M 296.824219 196.933594 L 329 196.933594 L 296.824219 189.195312 Z M 258.589844 179.953125 L 257.578125 187.816406 L 295.574219 187.816406 L 295.574219 179.953125 Z M 257.21875 189.066406 L 256.132812 196.933594 L 295.574219 196.933594 L 295.574219 189.066406 Z M 103.285156 72.421875 L 272.566406 72.421875 C 275.984375 72.421875 279.050781 70.339844 280.3125 67.167969 L 280.496094 66.703125 L 95.152344 66.703125 L 95.617188 67.675781 C 96.996094 70.574219 99.925781 72.421875 103.140625 72.421875 Z M 79.203125 187.816406 L 117.445312 187.816406 L 116.835938 183.105469 L 116.429688 179.949219 L 79.203125 179.949219 Z M 79.203125 196.933594 L 118.617188 196.933594 L 117.605469 189.066406 L 79.203125 189.066406 Z M 6.164062 196.933594 L 40.515625 196.933594 L 77.953125 187.949219 L 77.953125 180.113281 Z M 45.867188 196.933594 L 77.953125 196.933594 L 77.953125 189.234375 Z M 161.253906 204.996094 L 13.273438 204.996094 L 29.691406 307.96875 L 153.96875 307.96875 Z M 171.730469 198.179688 L 1.925781 198.179688 C 4.332031 201.65625 8.292969 203.746094 12.542969 203.746094 L 161.925781 203.746094 C 165.445312 203.746094 168.765625 202.097656 170.890625 199.292969 Z M 254.871094 196.933594 L 271.847656 73.671875 L 103.996094 73.671875 L 117.601562 179.246094 L 118.097656 183.117188 L 119.878906 196.933594 Z M 361.5 204.996094 L 213.519531 204.996094 L 220.808594 307.96875 L 345.082031 307.96875 Z M 372.851562 198.179688 L 203.042969 198.179688 L 203.886719 199.292969 C 206.011719 202.097656 209.328125 203.746094 212.851562 203.746094 L 362.234375 203.746094 C 366.480469 203.746094 370.441406 201.65625 372.851562 198.179688 Z M 248.722656 288.226562 L 330.597656 288.226562 C 330.941406 288.226562 331.222656 287.949219 331.222656 287.601562 C 331.222656 287.257812 330.941406 286.976562 330.597656 286.976562 L 248.722656 286.976562 C 248.378906 286.976562 248.097656 287.257812 248.097656 287.601562 C 248.097656 287.949219 248.378906 288.226562 248.722656 288.226562 Z M 248.722656 271.285156 L 330.597656 271.285156 C 330.941406 271.285156 331.222656 271.007812 331.222656 270.660156 C 331.222656 270.316406 330.941406 270.035156 330.597656 270.035156 L 248.722656 270.035156 C 248.378906 270.035156 248.097656 270.316406 248.097656 270.660156 C 248.097656 271.007812 248.378906 271.285156 248.722656 271.285156 Z M 248.722656 279.757812 L 330.597656 279.757812 C 330.941406 279.757812 331.222656 279.476562 331.222656 279.132812 C 331.222656 278.789062 330.941406 278.507812 330.597656 278.507812 L 248.722656 278.507812 C 248.378906 278.507812 248.097656 278.789062 248.097656 279.132812 C 248.097656 279.476562 248.378906 279.757812 248.722656 279.757812 Z M 253.898438 228.914062 L 253.898438 222.546875 C 253.898438 216.84375 258.53125 212.214844 264.246094 212.214844 L 315.070312 212.214844 C 320.871094 212.21875 325.421875 216.933594 325.421875 222.527344 C 325.421875 223.0625 325.378906 223.605469 325.292969 224.152344 L 324.292969 230.515625 C 323.5 235.542969 319.164062 239.246094 314.070312 239.246094 L 264.246094 239.246094 C 258.53125 239.246094 253.898438 234.621094 253.898438 228.914062 Z M 296.78125 213.464844 C 296.804688 213.53125 296.824219 213.597656 296.824219 213.667969 L 296.824219 237.996094 L 314.070312 237.996094 C 318.550781 237.996094 322.359375 234.742188 323.054688 230.324219 L 324.058594 223.957031 C 324.132812 223.476562 324.171875 223 324.171875 222.53125 C 324.171875 220.074219 323.171875 217.808594 321.53125 216.15625 C 319.894531 214.5 317.625 213.464844 315.070312 213.464844 Z M 255.148438 228.914062 C 255.148438 231.421875 256.167969 233.691406 257.8125 235.335938 C 259.460938 236.980469 261.730469 237.996094 264.246094 237.996094 L 295.574219 237.996094 L 295.574219 213.667969 C 295.574219 213.597656 295.59375 213.53125 295.613281 213.464844 L 264.246094 213.464844 C 261.730469 213.464844 259.460938 214.480469 257.8125 216.125 C 256.167969 217.769531 255.148438 220.039062 255.148438 222.546875 Z M 255.148438 228.914062"/></g></svg>