<svg xmlns="http://www.w3.org/2000/svg" width="375" viewBox="0 0 375 375" height="375" version="1.0"><defs><clipPath id="a"><path d="M 71 145.351562 L 72.691406 145.351562 L 72.691406 146.554688 L 71 146.554688 Z M 71 145.351562"/></clipPath><clipPath id="b"><path d="M 71.289062 146.300781 C 71.371094 146.027344 71.5 145.867188 71.683594 145.867188 C 71.785156 145.867188 71.894531 145.910156 72.023438 146 C 71.792969 146.128906 71.542969 146.226562 71.289062 146.300781"/></clipPath><clipPath id="c"><path d="M 298 76 L 360.796875 76 L 360.796875 195 L 298 195 Z M 298 76"/></clipPath><clipPath id="d"><path d="M 292 73.097656 L 299 73.097656 L 299 76 L 292 76 Z M 292 73.097656"/></clipPath><clipPath id="e"><path d="M 295.324219 75.792969 C 294.503906 75.792969 293.550781 75.371094 292.492188 74.160156 C 292.492188 74.160156 292.902344 74.21875 293.605469 74.21875 C 294.683594 74.21875 296.453125 74.082031 298.476562 73.382812 C 298.476562 73.382812 297.28125 75.792969 295.324219 75.792969"/></clipPath></defs><path fill="#5A291F" d="M 104.984375 98.5 C 104.984375 98.5 106.378906 85.050781 101.375 78.792969 C 96.375 72.539062 61.828125 73.613281 58.867188 74.457031 C 55.902344 75.296875 39.277344 76.457031 37.628906 85.222656 C 35.976562 93.992188 23.441406 176.597656 47.933594 176.585938 L 104.984375 98.5"/><path fill="#3B1E1A" d="M 44.792969 176.082031 C 37.550781 167.8125 39.6875 142.117188 39.6875 142.117188 C 37.546875 109.816406 43.9375 82.503906 43.9375 82.503906 C 50.246094 79.78125 71.289062 79.503906 71.289062 79.503906 C 78.402344 76.800781 88.605469 76.121094 95.949219 76.03125 C 98.507812 76.734375 100.453125 77.640625 101.375 78.792969 C 106.378906 85.050781 104.984375 98.5 104.984375 98.5 L 47.933594 176.585938 C 46.8125 176.585938 45.769531 176.414062 44.792969 176.082031"/><path fill="#5B2D2F" d="M 96.429688 25.222656 C 96.429688 25.222656 101.070312 28.4375 98.503906 44.691406 L 94.226562 29.816406 L 96.429688 25.222656"/><path fill="#D77849" d="M 112.945312 132.921875 C 112.945312 132.921875 115.796875 151.140625 115.550781 153.457031 C 115.382812 155.054688 105.628906 158.4375 103.425781 150.625 C 101.21875 142.808594 101.441406 136.066406 101.441406 136.066406 L 112.945312 132.921875"/><path fill="#C1D5DF" d="M 101.4375 86.183594 C 103.648438 87.285156 113.40625 88.664062 115.078125 101.21875 C 116.324219 110.558594 117.949219 150.421875 117.949219 150.421875 C 117.949219 150.421875 103.425781 150.625 103.324219 142.0625 C 103.324219 142.0625 100.976562 85.953125 101.4375 86.183594"/><path fill="#95AFB6" d="M 103.070312 86.800781 C 105.84375 87.765625 110.734375 89.609375 113.421875 95.347656 C 111.421875 96.628906 108.535156 98.851562 108.5 101.152344 C 108.441406 104.679688 113.066406 114.792969 111.90625 116.324219 C 110.742188 117.855469 106.070312 132.316406 107.40625 134.433594 C 108.535156 136.210938 114.1875 145.792969 114.824219 150.234375 C 110.546875 149.753906 103.394531 148.066406 103.324219 142.0625 C 103.324219 142.0625 102.355469 118.941406 101.785156 102.445312 C 102.300781 96.066406 102.769531 90.4375 103.070312 86.800781"/><path fill="#303B55" d="M 68.277344 347.074219 C 68.277344 347.074219 69.300781 346.101562 70.117188 349.832031 C 71.109375 354.347656 72.542969 362.355469 73.679688 367.59375 C 74.042969 369.265625 73.910156 372.488281 72.183594 373.695312 C 70.460938 374.898438 59.511719 374.9375 56.867188 371.898438 C 56.867188 371.898438 55.488281 368.628906 55.949219 365.875 C 56.410156 363.117188 58.15625 347.761719 60.113281 346.382812 C 62.066406 345.007812 68.277344 347.074219 68.277344 347.074219"/><path fill="#252B3C" d="M 55.949219 365.875 C 56.34375 363.507812 57.6875 351.90625 59.296875 347.773438 C 57.914062 353.164062 58.703125 366.117188 58.703125 366.117188 C 62.226562 370.863281 70.734375 368.03125 71.5 367.113281 C 71.929688 366.597656 71.589844 360.488281 71.214844 355.199219 C 72.019531 359.320312 72.914062 364.070312 73.679688 367.59375 C 74.042969 369.265625 73.910156 372.488281 72.183594 373.695312 C 70.460938 374.898438 59.511719 374.9375 56.867188 371.898438 C 56.867188 371.898438 55.488281 368.628906 55.949219 365.875"/><path fill="#F5E8B6" d="M 68.636719 341.285156 C 68.636719 341.285156 68.6875 345.921875 69.226562 348.453125 C 69.226562 348.453125 64.382812 353.28125 59.539062 348.453125 C 59.539062 348.453125 59.882812 341.140625 59.539062 338.757812 C 59.539062 338.757812 68.324219 337.261719 68.636719 341.285156"/><path fill="#6C746F" d="M 59.59375 347.070312 C 59.644531 345.636719 59.710938 343.320312 59.6875 341.398438 C 59.714844 343.320312 59.648438 345.632812 59.597656 347.070312 C 59.597656 347.070312 59.597656 347.070312 59.59375 347.070312"/><path fill="#4C424E" d="M 59.5625 347.894531 C 59.574219 347.679688 59.582031 347.394531 59.59375 347.070312 C 59.597656 347.070312 59.597656 347.070312 59.597656 347.070312 C 59.582031 347.394531 59.574219 347.671875 59.5625 347.894531"/><path fill="#6C746F" d="M 68.890625 346.082031 C 68.664062 343.773438 68.636719 341.308594 68.636719 341.285156 C 68.636719 341.308594 68.664062 343.773438 68.890625 346.082031 M 59.539062 338.769531 C 59.539062 338.765625 59.539062 338.765625 59.539062 338.757812 C 59.539062 338.765625 59.539062 338.765625 59.539062 338.769531"/><path fill="#BB9E77" d="M 61.53125 347.996094 C 60.914062 347.996094 60.253906 347.964844 59.5625 347.894531 C 59.574219 347.671875 59.582031 347.394531 59.597656 347.070312 C 59.648438 345.632812 59.714844 343.320312 59.6875 341.398438 C 59.671875 340.332031 59.628906 339.382812 59.539062 338.769531 C 59.539062 338.765625 59.539062 338.765625 59.539062 338.757812 C 59.539062 338.757812 61.140625 338.484375 63 338.484375 C 65.496094 338.484375 68.457031 338.980469 68.636719 341.285156 C 68.636719 341.308594 68.664062 343.773438 68.890625 346.082031 C 67.644531 346.882812 65.230469 347.996094 61.53125 347.996094"/><path fill="#303B55" d="M 94.175781 345.421875 C 94.175781 345.421875 105.796875 357.402344 109.355469 360.246094 C 109.355469 360.246094 114.109375 364.082031 114.109375 367.890625 C 114.109375 370.472656 113.421875 374.207031 105.601562 372.40625 C 97.785156 370.605469 90.730469 361.621094 88.585938 359.933594 C 86.441406 358.246094 82.105469 352.941406 81.496094 352.070312 C 81.496094 352.070312 79.570312 346.4375 81.96875 343.613281 L 94.175781 345.421875"/><path fill="#252B3C" d="M 81.125 345.1875 C 93.523438 368.730469 111.601562 368.632812 112.8125 367.726562 C 113.5625 367.160156 112.9375 365.011719 112.339844 363.425781 C 113.289062 364.734375 114.109375 366.316406 114.109375 367.890625 C 114.109375 368.929688 113.984375 370.148438 113.34375 371.128906 C 110.558594 372.609375 105.742188 371.96875 102.296875 371.21875 C 95.859375 368.164062 90.425781 361.375 88.585938 359.933594 C 86.441406 358.246094 82.105469 352.941406 81.496094 352.070312 C 81.496094 352.070312 80.152344 348.128906 81.125 345.1875"/><path fill="#F5E8B6" d="M 93.222656 343.398438 C 93.222656 343.398438 94.640625 346.769531 96.328125 348.796875 C 96.984375 349.585938 94.109375 352.96875 88.929688 351.402344 C 88.929688 351.402344 83.542969 348.078125 81.933594 344.902344 C 81.933594 344.902344 82.300781 340.714844 82.300781 338.757812 L 93.222656 343.398438"/><path fill="#6C746F" d="M 94.203125 345.449219 C 94.199219 345.445312 94.199219 345.445312 94.195312 345.4375 C 93.601562 344.289062 93.222656 343.398438 93.222656 343.398438 C 93.222656 343.398438 93.605469 344.300781 94.203125 345.449219"/><path fill="#4C424E" d="M 94.238281 345.515625 C 94.222656 345.492188 94.210938 345.460938 94.195312 345.4375 C 94.199219 345.445312 94.199219 345.445312 94.203125 345.449219 C 94.214844 345.46875 94.226562 345.492188 94.238281 345.515625 M 82.027344 345.082031 C 82.027344 345.082031 82.027344 345.078125 82.027344 345.078125 C 82.027344 345.078125 82.027344 345.082031 82.027344 345.082031 M 82.019531 345.066406 C 82.019531 345.0625 82.019531 345.0625 82.019531 345.0625 C 82.019531 345.0625 82.019531 345.0625 82.019531 345.066406 M 82.007812 345.046875 C 82.007812 345.046875 82.007812 345.042969 82.007812 345.042969 C 82.007812 345.042969 82.007812 345.042969 82.007812 345.046875 M 81.988281 345.007812 C 81.984375 345.007812 81.984375 345 81.984375 344.996094 C 81.984375 345 81.984375 345.007812 81.988281 345.007812 M 81.980469 344.992188 C 81.976562 344.988281 81.976562 344.984375 81.96875 344.976562 C 81.976562 344.984375 81.976562 344.988281 81.980469 344.992188 M 81.96875 344.972656 C 81.964844 344.96875 81.964844 344.96875 81.964844 344.964844 C 81.964844 344.96875 81.964844 344.96875 81.96875 344.972656 M 81.960938 344.953125 C 81.957031 344.949219 81.957031 344.949219 81.957031 344.945312 C 81.957031 344.949219 81.957031 344.949219 81.960938 344.953125 M 81.953125 344.941406 C 81.953125 344.933594 81.945312 344.929688 81.945312 344.925781 C 81.945312 344.929688 81.945312 344.933594 81.953125 344.941406 M 81.941406 344.921875 C 81.9375 344.917969 81.9375 344.90625 81.933594 344.902344 C 81.9375 344.90625 81.9375 344.917969 81.941406 344.921875"/><path fill="#BB9E77" d="M 85.378906 348.808594 C 84.078125 347.710938 82.746094 346.390625 82.027344 345.082031 C 82.027344 345.082031 82.027344 345.078125 82.027344 345.078125 C 82.023438 345.070312 82.023438 345.066406 82.019531 345.066406 C 82.019531 345.0625 82.019531 345.0625 82.019531 345.0625 C 82.011719 345.058594 82.011719 345.054688 82.007812 345.046875 C 82.007812 345.042969 82.007812 345.042969 82.007812 345.042969 C 82.003906 345.039062 82.003906 345.035156 82 345.03125 C 81.992188 345.019531 81.988281 345.015625 81.988281 345.007812 C 81.984375 345.007812 81.984375 345 81.984375 344.996094 C 81.980469 344.996094 81.980469 344.992188 81.980469 344.992188 C 81.976562 344.988281 81.976562 344.984375 81.96875 344.976562 C 81.96875 344.976562 81.96875 344.976562 81.96875 344.972656 C 81.964844 344.96875 81.964844 344.96875 81.964844 344.964844 C 81.960938 344.957031 81.960938 344.957031 81.960938 344.953125 C 81.957031 344.949219 81.957031 344.949219 81.957031 344.945312 C 81.953125 344.941406 81.953125 344.941406 81.953125 344.941406 C 81.945312 344.933594 81.945312 344.929688 81.945312 344.925781 C 81.941406 344.925781 81.941406 344.921875 81.941406 344.921875 C 81.9375 344.917969 81.9375 344.90625 81.933594 344.902344 C 81.933594 344.902344 82.300781 340.714844 82.300781 338.757812 L 93.222656 343.398438 C 93.222656 343.398438 93.601562 344.289062 94.195312 345.4375 C 94.210938 345.460938 94.222656 345.492188 94.238281 345.515625 C 92.699219 346.550781 89.777344 348.117188 85.378906 348.808594"/><path fill="#5B9BB3" d="M 50.820312 186.941406 L 103.425781 187.792969 C 103.425781 187.792969 103.492188 214.902344 99.203125 257.761719 L 94.550781 344.148438 C 94.550781 344.148438 87.875 347.742188 80.710938 342.832031 C 80.710938 342.832031 79.597656 307.058594 81.207031 287.289062 C 81.207031 287.289062 79.738281 234.675781 77.125 218.554688 L 72.015625 276.488281 L 70.996094 342.820312 C 70.996094 342.820312 64.65625 346.597656 56.476562 342.898438 C 56.476562 342.898438 53.296875 284.3125 55.226562 275.566406 L 52.808594 226.839844 C 52.808594 226.839844 48.789062 200.398438 50.820312 186.941406"/><path fill="#4B8299" d="M 103.425781 187.792969 C 103.425781 187.792969 103.425781 188.515625 103.40625 189.894531 L 103.222656 189.996094 C 90.195312 196.894531 54.78125 201.210938 54.78125 201.210938 C 53.332031 205.527344 54.78125 225.089844 54.78125 225.089844 C 57.390625 236.277344 59.539062 276.488281 59.539062 276.488281 C 59.996094 295.390625 67.046875 309.222656 67.046875 309.222656 C 70.113281 309.222656 72.015625 276.488281 72.015625 276.488281 L 70.996094 342.820312 C 70.996094 342.820312 64.65625 346.597656 56.476562 342.898438 C 56.476562 342.898438 53.296875 284.3125 55.226562 275.566406 L 52.808594 226.839844 C 52.808594 226.839844 48.789062 200.398438 50.820312 186.941406 L 103.425781 187.792969"/><path fill="#F78F57" d="M 55.113281 200.792969 C 55.113281 200.792969 57.488281 202.019531 58.101562 202.632812 C 58.710938 203.246094 54.84375 213.425781 53.210938 214.046875 C 53.210938 214.046875 49.667969 208.226562 49.667969 206.234375 L 55.113281 200.792969"/><path fill="#232A38" d="M 105.105469 87.699219 C 105.105469 87.699219 98.285156 84.320312 85.921875 82.027344 L 68.277344 79.503906 L 40.679688 90.078125 C 40.679688 90.078125 37.628906 111.074219 42.222656 125.328125 C 46.828125 139.578125 50.820312 186.941406 50.820312 186.941406 C 50.820312 186.941406 75.632812 196.582031 103.425781 187.792969 C 103.425781 187.792969 105.289062 159.394531 106.292969 131.457031 C 106.890625 114.691406 109.027344 98.324219 105.105469 87.699219"/><path fill="#E02734" d="M 89.214844 82.503906 C 97.585938 84.574219 105.105469 87.699219 105.105469 87.699219 C 109.027344 98.324219 106.738281 118.730469 106.140625 135.496094 C 105.136719 163.4375 105.378906 189.886719 105.378906 189.886719 C 101.785156 192.792969 92.867188 196.347656 89.214844 196.929688 L 90.632812 113.105469 L 89.214844 82.503906"/><path fill="#E02734" d="M 64.601562 80.910156 L 40.679688 90.078125 C 40.679688 90.078125 37.628906 111.074219 42.222656 125.328125 C 46.828125 139.578125 43.90625 190.496094 43.90625 190.496094 C 43.90625 190.496094 54.75 196.929688 69.816406 196.929688 C 69.816406 196.929688 79.910156 125.796875 75.546875 109.277344 C 71.65625 94.519531 64.570312 80.882812 64.570312 80.882812 L 64.601562 80.910156"/><path fill="#902329" d="M 51.808594 125.949219 L 72.734375 125.949219 L 72.734375 123.21875 L 51.808594 123.21875 L 51.808594 125.949219"/><path fill="#902329" d="M 91 125.183594 L 103.789062 125.183594 L 103.789062 122.453125 L 91 122.453125 L 91 125.183594"/><path fill="#A53028" d="M 63.828125 162.679688 C 63.898438 163.378906 64.539062 163.882812 65.265625 163.804688 L 96.566406 160.722656 C 97.296875 160.648438 97.828125 160.03125 97.757812 159.335938 L 93.445312 115.636719 C 93.382812 114.941406 92.734375 114.4375 92.011719 114.511719 L 60.707031 117.59375 C 59.984375 117.667969 59.449219 118.285156 59.515625 118.980469 L 63.828125 162.679688"/><path fill="#9AC8BD" d="M 64.753906 161.730469 C 64.820312 162.394531 65.414062 162.882812 66.082031 162.816406 L 94.78125 159.984375 C 95.453125 159.921875 95.9375 159.328125 95.871094 158.664062 L 91.730469 116.671875 C 91.664062 116.003906 91.070312 115.515625 90.40625 115.578125 L 61.699219 118.410156 C 61.03125 118.476562 60.546875 119.070312 60.609375 119.734375 L 64.753906 161.730469"/><path fill="#D3432F" d="M 66.414062 160.144531 C 66.484375 160.8125 67.078125 161.296875 67.742188 161.234375 L 96.449219 158.40625 C 97.117188 158.339844 97.601562 157.742188 97.535156 157.078125 L 93.394531 115.082031 C 93.328125 114.417969 92.734375 113.933594 92.066406 114 L 63.359375 116.828125 C 62.699219 116.890625 62.207031 117.484375 62.273438 118.152344 L 66.414062 160.144531"/><path fill="#D77849" d="M 64.902344 53.152344 C 64.902344 53.152344 66.089844 74.679688 64.570312 80.882812 C 64.570312 80.882812 77.769531 95.992188 89.761719 84.09375 C 89.761719 84.09375 88.261719 80.425781 86.671875 71.421875 L 64.902344 53.152344"/><path fill="#BD633F" d="M 65.328125 65.933594 C 65.265625 61.398438 65.09375 57.121094 64.988281 54.851562 L 65.714844 53.835938 L 73.953125 60.75 L 81.976562 67.484375 L 86.75 71.859375 L 86.78125 72.019531 C 87.121094 73.914062 87.460938 75.570312 87.78125 76.988281 L 87.785156 77.011719 C 87.941406 77.722656 88.097656 78.359375 88.242188 78.957031 L 88.265625 79.058594 C 88.414062 79.636719 88.546875 80.164062 88.675781 80.636719 L 88.683594 80.667969 C 81.214844 86.898438 69.691406 72.164062 65.328125 65.933594"/><path fill="#F78F57" d="M 98.453125 41.859375 C 98.453125 41.859375 98.765625 49.589844 97.882812 58.304688 C 97.347656 63.699219 93.914062 68.605469 90.425781 73.300781 C 88.703125 75.617188 85.726562 77.078125 82.804688 75.636719 C 82.804688 75.636719 73.320312 72.367188 67.191406 65.582031 C 62.320312 60.195312 58.988281 53.738281 58.175781 44.144531 C 58.175781 44.144531 53.851562 17.710938 82.550781 18.941406 C 82.550781 18.941406 96.535156 19.417969 98.453125 41.859375"/><path fill="#1E1517" d="M 89.511719 43.433594 C 89.511719 43.433594 92.910156 37.859375 97.058594 41.917969 C 97.058594 41.917969 94.492188 41.171875 89.511719 43.433594"/><path fill="#1E1517" d="M 82.988281 43.683594 C 82.988281 43.683594 76.28125 39.121094 71.351562 44.691406 C 71.351562 44.691406 76.085938 42.117188 82.988281 43.683594"/><path fill="#BC6745" d="M 84.929688 71.210938 C 83.242188 71.210938 81.847656 69.476562 81.847656 69.476562 C 82.484375 69.546875 83.085938 69.578125 83.644531 69.578125 C 86.175781 69.578125 87.863281 68.953125 87.863281 68.953125 C 86.921875 70.664062 85.875 71.210938 84.929688 71.210938"/><path fill="#F78F57" d="M 59.363281 49.496094 C 59.363281 49.496094 54.488281 42.816406 53.324219 48.210938 C 52.027344 54.238281 59.011719 65.09375 62.679688 59.027344 C 62.679688 59.027344 63.453125 55.269531 59.363281 49.496094"/><path fill="#9C452C" d="M 89.785156 58.605469 C 90.339844 58.101562 90.867188 57.566406 91.300781 56.96875 C 91.519531 56.675781 91.714844 56.371094 91.847656 56.039062 C 91.921875 55.878906 91.964844 55.710938 91.992188 55.550781 C 92.03125 55.382812 92.019531 55.222656 92.019531 55.0625 L 92.058594 55.179688 C 91.566406 54.421875 91.113281 53.65625 90.691406 52.863281 C 90.261719 52.078125 89.921875 51.242188 89.582031 50.414062 C 89.414062 49.996094 89.28125 49.566406 89.15625 49.136719 C 89.007812 48.710938 88.910156 48.269531 88.839844 47.824219 C 88.777344 47.375 88.632812 46.949219 88.667969 46.492188 C 88.667969 46.039062 88.660156 45.589844 88.679688 45.144531 C 88.753906 45.59375 88.8125 46.03125 88.867188 46.464844 C 88.90625 46.902344 89.09375 47.320312 89.1875 47.742188 C 89.292969 48.171875 89.417969 48.585938 89.597656 48.988281 C 89.773438 49.394531 89.886719 49.820312 90.070312 50.222656 L 90.605469 51.421875 C 90.792969 51.816406 91.015625 52.203125 91.199219 52.601562 C 91.589844 53.386719 92.019531 54.164062 92.476562 54.90625 L 92.511719 54.96875 L 92.515625 55.019531 C 92.542969 55.460938 92.398438 55.863281 92.21875 56.214844 C 92.039062 56.570312 91.800781 56.882812 91.546875 57.167969 C 91.027344 57.738281 90.429688 58.214844 89.785156 58.605469"/><path fill="#201617" d="M 77.789062 49.292969 C 77.914062 50.757812 78.609375 51.894531 79.339844 51.832031 C 80.066406 51.765625 80.550781 50.527344 80.417969 49.058594 C 80.289062 47.59375 79.59375 46.457031 78.863281 46.519531 C 78.136719 46.585938 77.65625 47.828125 77.789062 49.292969"/><path fill="#201617" d="M 90.628906 48.171875 C 90.761719 49.636719 91.453125 50.773438 92.179688 50.707031 C 92.910156 50.640625 93.390625 49.398438 93.257812 47.933594 C 93.132812 46.46875 92.433594 45.332031 91.707031 45.394531 C 90.980469 45.460938 90.496094 46.707031 90.628906 48.171875"/><path fill="#F5E8B6" d="M 88.585938 359.933594 C 86.441406 358.246094 82.105469 352.941406 81.496094 352.070312 C 81.496094 352.070312 81.058594 350.773438 80.859375 349.113281 C 85.5625 355.964844 100.007812 368.21875 100.007812 368.21875 C 106.792969 371.785156 112.308594 370.566406 114 369.367188 C 113.625 371.644531 112.003906 373.878906 105.601562 372.40625 C 97.785156 370.605469 90.730469 361.621094 88.585938 359.933594"/><path fill="#F5E8B6" d="M 57.238281 357.035156 C 57.15625 358.875 56.882812 361.234375 56.777344 364.316406 C 56.5625 371.046875 64.382812 371.4375 64.382812 371.4375 C 73.394531 372.019531 73.769531 368.242188 73.777344 368.210938 C 73.992188 369.964844 73.71875 372.625 72.183594 373.695312 C 70.460938 374.898438 59.511719 374.9375 56.867188 371.898438 C 56.867188 371.898438 55.488281 368.628906 55.949219 365.875 C 56.152344 364.644531 56.613281 360.914062 57.238281 357.035156"/><path fill="#FFF" d="M 69.429688 360.585938 C 69.394531 360.566406 67.648438 359.710938 65.011719 359.710938 C 63.699219 359.710938 62.160156 359.921875 60.519531 360.566406 C 60.285156 360.660156 60.167969 360.929688 60.261719 361.164062 C 60.355469 361.398438 60.617188 361.515625 60.859375 361.421875 C 62.382812 360.824219 63.796875 360.628906 65.011719 360.628906 C 66.230469 360.628906 67.242188 360.824219 67.945312 361.023438 C 68.296875 361.121094 68.574219 361.222656 68.757812 361.296875 L 68.964844 361.378906 L 69.027344 361.410156 C 69.253906 361.523438 69.53125 361.429688 69.640625 361.199219 C 69.753906 360.972656 69.65625 360.695312 69.429688 360.585938"/><path fill="#FFF" d="M 69.429688 358.988281 C 69.394531 358.96875 67.648438 358.117188 65.011719 358.113281 C 63.699219 358.113281 62.160156 358.328125 60.519531 358.972656 C 60.285156 359.066406 60.167969 359.328125 60.261719 359.570312 C 60.355469 359.804688 60.617188 359.921875 60.859375 359.828125 C 62.382812 359.230469 63.796875 359.035156 65.011719 359.035156 C 66.230469 359.035156 67.242188 359.230469 67.945312 359.429688 C 68.296875 359.527344 68.574219 359.625 68.757812 359.695312 L 68.964844 359.785156 L 69.027344 359.8125 C 69.253906 359.921875 69.53125 359.828125 69.640625 359.601562 C 69.753906 359.375 69.65625 359.097656 69.429688 358.988281"/><path fill="#FFF" d="M 69.429688 357.390625 C 69.394531 357.371094 67.648438 356.515625 65.011719 356.515625 C 63.699219 356.515625 62.160156 356.734375 60.519531 357.371094 C 60.285156 357.46875 60.167969 357.734375 60.261719 357.96875 C 60.355469 358.210938 60.617188 358.324219 60.859375 358.230469 C 62.382812 357.632812 63.796875 357.433594 65.011719 357.433594 C 66.230469 357.433594 67.242188 357.636719 67.945312 357.832031 C 68.296875 357.933594 68.574219 358.03125 68.757812 358.101562 L 68.964844 358.1875 L 69.027344 358.214844 C 69.253906 358.328125 69.53125 358.234375 69.640625 358.007812 C 69.753906 357.777344 69.65625 357.5 69.429688 357.390625"/><path fill="#FFF" d="M 69.429688 355.796875 C 69.394531 355.773438 67.648438 354.921875 65.011719 354.917969 C 63.699219 354.917969 62.160156 355.132812 60.519531 355.777344 C 60.285156 355.871094 60.167969 356.136719 60.261719 356.375 C 60.355469 356.609375 60.617188 356.726562 60.859375 356.632812 C 62.382812 356.035156 63.796875 355.839844 65.011719 355.839844 C 66.230469 355.839844 67.242188 356.035156 67.945312 356.234375 C 68.296875 356.332031 68.574219 356.433594 68.757812 356.507812 L 68.964844 356.59375 L 69.027344 356.621094 C 69.253906 356.734375 69.53125 356.640625 69.640625 356.410156 C 69.753906 356.183594 69.65625 355.90625 69.429688 355.796875"/><path fill="#FFF" d="M 69.429688 354.199219 C 69.394531 354.179688 67.648438 353.324219 65.011719 353.324219 C 63.699219 353.324219 62.160156 353.539062 60.519531 354.183594 C 60.285156 354.273438 60.167969 354.542969 60.261719 354.777344 C 60.355469 355.015625 60.617188 355.128906 60.859375 355.039062 C 62.382812 354.441406 63.796875 354.246094 65.011719 354.246094 C 66.230469 354.246094 67.242188 354.441406 67.945312 354.640625 C 68.296875 354.738281 68.574219 354.835938 68.757812 354.90625 L 68.964844 354.996094 L 69.027344 355.019531 C 69.253906 355.132812 69.53125 355.039062 69.640625 354.8125 C 69.753906 354.582031 69.65625 354.3125 69.429688 354.199219"/><path fill="#FFF" d="M 109.019531 358.988281 C 108.984375 358.972656 107.820312 358.402344 106.179688 358.398438 C 104.523438 358.390625 102.359375 359.015625 100.5625 361.351562 C 100.40625 361.550781 100.445312 361.84375 100.644531 361.996094 C 100.84375 362.152344 101.136719 362.113281 101.289062 361.914062 C 102.929688 359.808594 104.734375 359.324219 106.179688 359.320312 C 106.890625 359.320312 107.511719 359.441406 107.949219 359.570312 C 108.164062 359.636719 108.339844 359.695312 108.453125 359.742188 L 108.582031 359.796875 L 108.617188 359.8125 C 108.847656 359.921875 109.121094 359.828125 109.234375 359.601562 C 109.347656 359.371094 109.253906 359.097656 109.019531 358.988281"/><path fill="#FFF" d="M 106.753906 356.988281 C 106.710938 356.96875 105.554688 356.402344 103.910156 356.398438 C 102.253906 356.390625 100.089844 357.015625 98.292969 359.351562 C 98.136719 359.550781 98.175781 359.84375 98.375 359.996094 C 98.574219 360.152344 98.863281 360.117188 99.019531 359.914062 C 100.660156 357.804688 102.46875 357.324219 103.910156 357.320312 C 104.621094 357.320312 105.242188 357.445312 105.675781 357.570312 C 105.898438 357.636719 106.066406 357.699219 106.183594 357.746094 L 106.3125 357.796875 L 106.347656 357.816406 C 106.574219 357.921875 106.851562 357.828125 106.960938 357.601562 C 107.074219 357.371094 106.980469 357.101562 106.753906 356.988281"/><path fill="#FFF" d="M 105.074219 355.597656 C 105.035156 355.585938 103.875 355.015625 102.230469 355.011719 C 100.574219 355.007812 98.410156 355.628906 96.613281 357.964844 C 96.457031 358.167969 96.496094 358.453125 96.699219 358.609375 C 96.902344 358.765625 97.1875 358.726562 97.34375 358.53125 C 98.980469 356.421875 100.789062 355.9375 102.230469 355.933594 C 102.941406 355.933594 103.5625 356.058594 103.996094 356.183594 C 104.21875 356.25 104.390625 356.308594 104.503906 356.355469 L 104.667969 356.425781 C 104.898438 356.539062 105.171875 356.441406 105.285156 356.214844 C 105.398438 355.984375 105.300781 355.710938 105.074219 355.597656"/><path fill="#FFF" d="M 103.625 354.117188 C 103.585938 354.105469 102.425781 353.535156 100.78125 353.535156 C 99.125 353.523438 96.960938 354.152344 95.164062 356.484375 C 95.007812 356.6875 95.046875 356.972656 95.25 357.128906 C 95.453125 357.285156 95.738281 357.246094 95.894531 357.046875 C 97.53125 354.941406 99.339844 354.460938 100.78125 354.453125 C 101.492188 354.453125 102.113281 354.578125 102.550781 354.707031 C 102.769531 354.765625 102.941406 354.828125 103.058594 354.875 L 103.1875 354.929688 L 103.222656 354.945312 C 103.449219 355.058594 103.726562 354.964844 103.835938 354.734375 C 103.949219 354.507812 103.855469 354.230469 103.625 354.121094"/><path fill="#FFF" d="M 102.800781 352.9375 C 102.769531 352.921875 101.605469 352.355469 99.964844 352.347656 C 98.308594 352.34375 96.144531 352.964844 94.34375 355.304688 C 94.191406 355.503906 94.226562 355.792969 94.425781 355.949219 C 94.628906 356.101562 94.914062 356.066406 95.070312 355.863281 C 96.710938 353.761719 98.519531 353.277344 99.964844 353.269531 C 100.675781 353.269531 101.289062 353.398438 101.726562 353.519531 C 101.945312 353.585938 102.117188 353.648438 102.238281 353.695312 L 102.363281 353.746094 L 102.402344 353.765625 C 102.625 353.875 102.90625 353.785156 103.011719 353.554688 C 103.125 353.324219 103.03125 353.050781 102.800781 352.9375"/><path fill="#4B8299" d="M 91.878906 310.449219 C 93.515625 311.152344 95.453125 305.316406 96.957031 299.414062 L 94.550781 344.148438 C 94.550781 344.148438 87.875 347.742188 80.710938 342.832031 C 80.710938 342.832031 79.597656 307.058594 81.207031 287.289062 C 81.207031 287.289062 79.792969 236.734375 77.273438 219.566406 L 77.273438 219.554688 C 82.441406 222.757812 83.601562 281.175781 83.449219 283.628906 C 83.296875 286.082031 88.660156 309.066406 91.878906 310.449219"/><path fill="#9C452C" d="M 90.605469 60.816406 C 90.605469 60.816406 90.492188 61.003906 90.199219 61.277344 C 90.0625 61.421875 89.875 61.578125 89.644531 61.726562 C 89.414062 61.875 89.167969 62.097656 88.851562 62.222656 C 88.539062 62.359375 88.195312 62.507812 87.824219 62.648438 C 87.457031 62.796875 87.039062 62.835938 86.621094 62.925781 C 86.195312 62.992188 85.753906 63.121094 85.304688 63.078125 C 84.855469 63.066406 84.398438 63.058594 83.941406 63.050781 C 83.484375 63.058594 83.039062 62.96875 82.605469 62.867188 C 82.167969 62.78125 81.746094 62.667969 81.332031 62.574219 C 80.921875 62.472656 80.511719 62.410156 80.164062 62.234375 C 79.8125 62.082031 79.476562 61.933594 79.171875 61.796875 C 77.941406 61.238281 77.171875 60.816406 77.171875 60.816406 C 77.171875 60.816406 78.058594 60.976562 79.335938 61.300781 C 79.652344 61.382812 79.996094 61.476562 80.355469 61.574219 C 80.710938 61.703125 81.113281 61.703125 81.507812 61.785156 C 81.910156 61.851562 82.324219 61.90625 82.742188 61.992188 C 83.15625 62.074219 83.578125 62.152344 84.007812 62.132812 C 84.4375 62.152344 84.863281 62.167969 85.28125 62.1875 C 85.707031 62.242188 86.109375 62.164062 86.507812 62.128906 C 86.898438 62.066406 87.296875 62.082031 87.644531 61.992188 C 88 61.890625 88.332031 61.8125 88.648438 61.738281 C 88.96875 61.667969 89.222656 61.515625 89.472656 61.429688 C 89.730469 61.34375 89.933594 61.238281 90.085938 61.136719 C 90.425781 60.957031 90.605469 60.816406 90.605469 60.816406"/><path fill="#F78F57" d="M 115.167969 148.59375 C 115.167969 148.59375 86.605469 143.917969 73.726562 140.414062 C 73.726562 140.414062 68.992188 135.304688 68.242188 134.070312 C 68.242188 134.070312 66.726562 133.125 65.679688 132.9375 C 64.640625 132.75 61.230469 134.546875 61.230469 134.546875 C 61.230469 134.546875 60.222656 134.78125 60.425781 136.789062 C 60.425781 136.789062 59.417969 137.835938 59.511719 139.15625 C 59.511719 139.15625 58.78125 139.734375 58.871094 141.1875 C 58.871094 141.1875 58.753906 142.730469 59.511719 143.777344 C 60.269531 144.816406 62.113281 145.328125 62.113281 145.328125 C 62.113281 145.328125 62.898438 145.183594 62.753906 143.917969 C 62.753906 143.917969 68.617188 147.890625 72.023438 146 C 72.023438 146 100.03125 159.003906 107.980469 159.667969 C 107.980469 159.667969 119.789062 161.28125 115.167969 148.59375"/><g clip-path="url(#a)"><g clip-path="url(#b)"><path fill="#E47D4B" d="M 71.289062 146.300781 L 72.023438 146.300781 L 72.023438 145.867188 L 71.289062 145.867188 Z M 71.289062 146.300781"/></g></g><path fill="#DAE5E9" d="M 105.722656 145.484375 C 105.722656 145.484375 117.179688 147.394531 117.949219 148.316406 C 117.949219 148.316406 119.398438 157.355469 116.238281 159.730469 C 113.082031 162.109375 103.246094 164.050781 73.039062 146.9375 C 73.039062 146.9375 74.328125 144.195312 74.503906 140.621094 C 74.503906 140.621094 75.027344 138.789062 78.472656 140.621094 C 78.472656 140.621094 82.070312 141.433594 83.992188 141.761719 C 86.90625 142.265625 100.03125 144.433594 105.722656 145.484375"/><path fill="#95AFB6" d="M 73.753906 144.945312 C 77.453125 147.910156 93.164062 154.265625 97.253906 153.566406 C 101.699219 152.796875 112.738281 155.402344 115.3125 154.941406 C 117.886719 154.480469 117.949219 149.582031 117.949219 149.582031 L 118.089844 149.433594 C 118.355469 151.917969 118.714844 157.867188 116.238281 159.730469 C 113.082031 162.109375 103.246094 164.050781 73.039062 146.9375 C 73.039062 146.9375 73.394531 146.175781 73.753906 144.945312"/><path fill="#FFF" d="M 74.488281 138.238281 C 74.488281 138.238281 72.164062 146.363281 72.023438 146.898438 C 72.023438 146.898438 71.304688 148.8125 73.546875 149.5 C 73.546875 149.5 75.042969 150.578125 75.800781 150.882812 C 76.558594 151.1875 76.867188 151.5 77.863281 150.234375 C 78.859375 148.964844 80.261719 140.914062 79.90625 139.808594 C 79.90625 139.808594 79.242188 139.039062 77.402344 138.90625 C 77.402344 138.90625 74.785156 137.21875 74.488281 138.238281"/><path fill="#95AFB6" d="M 75.800781 150.882812 C 75.042969 150.578125 73.546875 149.5 73.546875 149.5 C 71.304688 148.8125 72.023438 146.898438 72.023438 146.898438 C 72.050781 146.796875 72.160156 146.410156 72.316406 145.863281 C 73.730469 146.828125 75.9375 143.675781 75.9375 143.675781 L 75.488281 146.820312 C 76.445312 147.933594 78.195312 146.804688 79.183594 146.003906 C 78.78125 147.933594 78.285156 149.695312 77.863281 150.234375 C 76.867188 151.5 76.558594 151.1875 75.800781 150.882812"/><path fill="#C1D5DF" d="M 76.179688 115.5625 C 75.621094 113.617188 74.039062 110.472656 71.914062 107.894531 C 69.261719 104.679688 52.1875 93.949219 52.1875 93.949219 C 52.1875 93.949219 54.949219 84.140625 57.09375 82.503906 C 59.238281 80.863281 64.988281 79.503906 64.988281 79.503906 C 64.988281 79.503906 75.792969 104.832031 76.410156 106.976562 C 76.824219 108.433594 76.675781 113.136719 76.535156 115.527344 L 76.179688 115.5625"/><path fill="#95AFB6" d="M 76.171875 115.566406 C 75.929688 114.726562 75.515625 113.6875 74.929688 112.539062 L 75.546875 110.203125 C 75.546875 110.203125 60.3125 87.359375 60.605469 85.675781 C 60.863281 84.183594 63.652344 80.511719 64.296875 79.679688 C 64.722656 79.570312 64.988281 79.503906 64.988281 79.503906 C 64.988281 79.503906 75.792969 104.832031 76.410156 106.976562 C 76.824219 108.433594 76.675781 113.136719 76.535156 115.527344 L 76.171875 115.566406"/><path fill="#C1D5DF" d="M 89.253906 114.277344 L 89.511719 105.902344 L 88.675781 80.636719 C 88.675781 80.636719 89.320312 79.496094 93.285156 83.65625 C 93.285156 83.65625 98.953125 94.40625 99.863281 96.863281 C 100.65625 98.972656 92.871094 109.886719 90.871094 114.117188 L 89.253906 114.277344"/><path fill="#95AFB6" d="M 89.511719 105.902344 L 88.675781 80.636719 C 88.675781 80.636719 88.910156 80.242188 89.933594 80.792969 C 90.585938 85.660156 92.910156 102.878906 93.285156 104.0625 C 93.535156 104.839844 92.609375 108.984375 91.753906 112.453125 C 91.40625 113.066406 91.097656 113.640625 90.871094 114.117188 L 89.253906 114.277344 L 89.511719 105.902344"/><path fill="#FFF" d="M 58.167969 199.382812 C 58.167969 199.382812 53.605469 210.332031 48.355469 210.648438 C 45.441406 210.824219 43.140625 205.28125 43.140625 205.28125 L 51.210938 195.984375 C 51.210938 195.984375 52.722656 192.261719 58.167969 199.382812"/><path fill="#C1D5DF" d="M 52.203125 195.058594 C 52.203125 195.058594 50.195312 204.976562 43.140625 205.28125 C 43.140625 205.28125 20.148438 172.667969 16.777344 161.238281 C 16.777344 161.238281 14.707031 156.550781 15.628906 153.023438 C 16.546875 149.5 23.90625 118.585938 24.441406 116.628906 C 24.980469 114.671875 28.417969 94.988281 36.160156 91.542969 L 40.679688 90.078125 C 40.679688 90.078125 48.816406 105.070312 48.816406 116.257812 C 48.816406 116.257812 47.359375 129.519531 43.679688 128.660156 C 40.003906 127.804688 35.191406 153.167969 32.203125 155.378906 C 32.203125 155.378906 34.5 157.886719 33.582031 159.925781 C 33.582031 159.925781 35.128906 160.320312 52.203125 195.058594"/><path fill="#95AFB6" d="M 28.578125 154.40625 C 30.648438 153.714844 32.71875 125.667969 35.476562 118.515625 C 38.238281 111.359375 41.917969 113.261719 44.90625 112.574219 C 46.398438 112.230469 46.398438 107.300781 46.03125 102.449219 C 47.554688 106.882812 48.816406 111.859375 48.816406 116.257812 C 48.816406 116.257812 47.359375 129.519531 43.679688 128.660156 C 40.003906 127.804688 35.191406 153.167969 32.203125 155.378906 C 32.203125 155.378906 34.5 157.886719 33.582031 159.925781 C 33.582031 159.925781 35.128906 160.320312 52.203125 195.058594 C 52.203125 195.058594 51.90625 196.511719 51.144531 198.324219 C 47.671875 190.015625 31.609375 166.914062 30.191406 164.199219 C 28.578125 161.121094 24.902344 163.140625 24.210938 162.328125 C 23.519531 161.519531 27.199219 160.613281 28.578125 158.773438 C 29.960938 156.933594 23.296875 157.855469 23.066406 155.574219 C 22.832031 153.296875 26.511719 155.09375 28.578125 154.40625"/><path fill="#5B2D2F" d="M 70.878906 33.371094 C 70.878906 33.371094 69.429688 37.785156 67.976562 39.625 C 66.519531 41.460938 61.230469 49.125 61.230469 50.121094 C 61.230469 51.117188 59.988281 50.925781 58.8125 48.800781 L 57.632812 47.554688 C 57.632812 47.554688 53.71875 33.492188 57.632812 27.976562 L 70.878906 33.371094"/><path fill="#3A2023" d="M 95.402344 29.34375 C 95.402344 29.34375 91.8125 33.417969 87.210938 34.183594 C 87.210938 34.183594 65.601562 34.796875 56.980469 29.347656 C 56.980469 29.347656 54.40625 19.777344 58.472656 16.828125 C 62.542969 13.878906 78.832031 12.253906 85.441406 14.46875 C 85.441406 14.46875 82.152344 7.207031 89.398438 11.347656 C 89.398438 11.347656 91.003906 5.34375 94.824219 13.464844 C 94.824219 13.464844 99.921875 12.507812 95.402344 29.34375"/><path fill="#5A291F" d="M 46.015625 87.710938 C 46.015625 87.710938 62.414062 127.710938 44.789062 153.109375 C 44.789062 153.109375 42.875 159.832031 44.789062 161.238281 C 46.707031 162.648438 68.242188 134.070312 52.1875 85.671875 C 52.1875 85.671875 48.085938 83.804688 46.015625 87.710938"/><path fill="#5A291F" d="M 101.433594 86.183594 C 101.433594 86.183594 106.027344 119.664062 105.804688 143.675781 C 105.804688 143.675781 108.871094 142.632812 108.5 137.910156 C 108.132812 133.1875 108.53125 101.75 105.105469 87.699219 C 105.105469 87.699219 103.734375 83.738281 101.433594 86.183594"/><path fill="#351A1A" d="M 150.644531 63.542969 C 150.644531 63.542969 142.933594 108.136719 165.046875 105.578125 C 165.046875 105.578125 183.058594 104.078125 185.941406 104.378906 C 188.820312 104.679688 206.171875 101.667969 196.230469 62.566406 L 150.644531 63.542969"/><path fill="#F78F57" d="M 143.234375 119.28125 C 143.234375 119.28125 141.726562 154.335938 140.824219 160.410156 L 119.269531 189.4375 C 119.269531 189.4375 119.570312 191.898438 121.980469 192.5 C 121.980469 192.5 146.832031 173.558594 149.097656 165.058594 C 151.359375 156.558594 150.199219 122.1875 150.199219 122.1875 L 143.234375 119.28125"/><path fill="#8E7E71" d="M 131.03125 185.148438 C 136.929688 180.128906 144.117188 173.492188 147.429688 168.453125 C 144.117188 173.496094 136.929688 180.128906 131.03125 185.148438 M 142.101562 142.632812 C 142.238281 140.144531 142.367188 137.617188 142.492188 135.1875 C 142.367188 137.617188 142.238281 140.144531 142.101562 142.632812"/><path fill="#E47D4B" d="M 124.128906 190.820312 C 124.183594 190.765625 145.492188 168.59375 146.695312 163.039062 C 146.695312 163.039062 146.992188 147.996094 146.089844 146.640625 C 145.644531 145.972656 143.820312 144.222656 142.101562 142.632812 C 142.238281 140.144531 142.367188 137.617188 142.492188 135.1875 C 143.417969 135.332031 144.523438 135.519531 145.667969 135.746094 L 148.914062 158.855469 L 147.429688 168.453125 C 144.117188 173.492188 136.929688 180.128906 131.03125 185.148438 C 128.269531 187.503906 125.792969 189.503906 124.128906 190.820312"/><path fill="#AF2833" d="M 154.695312 96.570312 C 154.695312 96.570312 149.972656 97.050781 146.808594 101.410156 C 143.652344 105.773438 137.484375 136.683594 137.484375 136.683594 C 137.484375 136.683594 142.957031 142.925781 147.589844 141.871094 L 154.695312 96.570312"/><path fill="#9C2327" d="M 181.125 350.253906 C 181.125 350.253906 180.214844 349.394531 179.492188 352.695312 C 178.617188 356.6875 177.351562 363.761719 176.34375 368.394531 C 176.027344 369.871094 176.144531 372.71875 177.667969 373.785156 C 179.191406 374.847656 188.867188 374.882812 191.203125 372.195312 C 191.203125 372.195312 192.421875 369.308594 192.015625 366.871094 C 191.609375 364.429688 190.0625 350.867188 188.335938 349.648438 C 186.609375 348.425781 181.125 350.253906 181.125 350.253906"/><path fill="#C7D9DC" d="M 180.800781 345.136719 C 180.800781 345.136719 180.757812 349.238281 180.277344 351.472656 C 180.277344 351.472656 184.5625 355.742188 188.84375 351.472656 C 188.84375 351.472656 188.542969 345.007812 188.84375 342.90625 C 188.84375 342.90625 181.078125 341.585938 180.800781 345.136719"/><path fill="#9C2327" d="M 154.421875 349.558594 C 154.421875 349.558594 144.75 359.53125 141.789062 361.902344 C 141.789062 361.902344 137.832031 365.09375 137.832031 368.265625 C 137.832031 370.417969 138.40625 373.523438 144.914062 372.019531 C 151.421875 370.527344 157.289062 363.046875 159.078125 361.640625 C 160.863281 360.238281 164.46875 355.820312 164.980469 355.097656 C 164.980469 355.097656 166.582031 350.40625 164.582031 348.054688 L 154.421875 349.558594"/><path fill="#C7D9DC" d="M 157.21875 345.292969 C 157.21875 345.292969 154.039062 350.683594 152.636719 352.371094 C 152.085938 353.03125 154.476562 355.839844 158.789062 354.542969 C 158.789062 354.542969 163.273438 351.769531 164.613281 349.132812 C 164.613281 349.132812 164.308594 345.640625 164.308594 344.019531 L 157.21875 345.292969"/><path fill="#63A3C5" d="M 198.433594 186.570312 L 145.566406 186.570312 C 145.566406 186.570312 144.660156 216.363281 149.046875 260.164062 L 153.792969 348.453125 C 153.792969 348.453125 158.261719 352.042969 165.589844 347.023438 C 165.589844 347.023438 169.074219 310.546875 167.429688 290.34375 C 167.429688 290.34375 169.566406 228.652344 172.234375 212.171875 L 176.828125 279.300781 L 179.671875 348.457031 C 179.671875 348.457031 181.734375 352.636719 190.089844 348.855469 C 190.089844 348.855469 196.316406 296.511719 193.984375 278.363281 L 195.910156 239.640625 C 195.910156 239.640625 200.542969 202.074219 198.433594 186.570312"/><path fill="#518FAC" d="M 145.554688 201.847656 C 165.804688 213.199219 194.835938 207.585938 194.835938 207.585938 C 195.136719 209.570312 192.882812 223.054688 190.476562 235.6875 C 188.066406 248.320312 187.164062 273.589844 187.828125 280.207031 C 188.496094 286.828125 186.265625 332.699219 184.050781 333.753906 C 182.917969 334.292969 180.546875 327.277344 178.519531 320.328125 L 179.671875 348.457031 C 179.671875 348.457031 181.734375 352.636719 190.085938 348.855469 C 190.085938 348.855469 196.316406 296.511719 193.984375 278.363281 L 195.910156 239.640625 C 195.910156 239.640625 199.265625 212.421875 198.960938 194.757812 L 145.492188 191.613281 C 145.476562 194.148438 145.488281 197.589844 145.554688 201.847656"/><path fill="#FBCED1" d="M 159.078125 361.640625 C 160.863281 360.238281 164.46875 355.820312 164.980469 355.097656 C 164.980469 355.097656 165.34375 354.015625 165.507812 352.632812 C 161.597656 358.335938 149.570312 368.539062 149.570312 368.539062 C 143.925781 371.503906 139.328125 370.496094 137.921875 369.496094 C 138.230469 371.386719 139.582031 373.25 144.914062 372.019531 C 151.421875 370.527344 157.289062 363.046875 159.078125 361.640625"/><path fill="#FBCED1" d="M 190.878906 359.058594 C 190.949219 360.683594 191.109375 362.777344 191.28125 365.492188 C 191.6875 371.925781 184.5625 371.789062 184.5625 371.789062 C 177.355469 373.253906 176.265625 368.964844 176.261719 368.933594 C 176.074219 370.488281 176.3125 372.835938 177.667969 373.785156 C 179.191406 374.847656 188.867188 374.882812 191.203125 372.195312 C 191.203125 372.195312 192.421875 369.308594 192.015625 366.871094 C 191.835938 365.785156 191.425781 362.492188 190.878906 359.058594"/><path fill="#FFF" d="M 180.457031 362.921875 L 180.515625 362.898438 C 180.792969 362.773438 182.125 362.238281 184.003906 362.238281 C 185.078125 362.238281 186.328125 362.410156 187.679688 362.9375 C 187.886719 363.023438 188.121094 362.917969 188.207031 362.707031 C 188.289062 362.5 188.183594 362.265625 187.976562 362.183594 C 186.523438 361.617188 185.164062 361.421875 184.003906 361.421875 C 181.675781 361.421875 180.136719 362.179688 180.101562 362.195312 C 179.898438 362.292969 179.816406 362.539062 179.917969 362.742188 C 180.015625 362.941406 180.261719 363.027344 180.457031 362.921875"/><path fill="#FFF" d="M 180.457031 361.511719 L 180.515625 361.488281 C 180.792969 361.367188 182.125 360.824219 184.003906 360.824219 C 185.078125 360.824219 186.328125 361 187.679688 361.527344 C 187.886719 361.609375 188.121094 361.507812 188.207031 361.296875 C 188.289062 361.089844 188.183594 360.855469 187.976562 360.773438 C 186.523438 360.199219 185.164062 360.011719 184.003906 360.011719 C 181.675781 360.011719 180.136719 360.769531 180.101562 360.785156 C 179.898438 360.882812 179.816406 361.125 179.917969 361.328125 C 180.015625 361.53125 180.261719 361.617188 180.457031 361.515625"/><path fill="#FFF" d="M 180.457031 360.101562 L 180.515625 360.078125 C 180.792969 359.957031 182.125 359.414062 184.003906 359.414062 C 185.078125 359.414062 186.328125 359.589844 187.679688 360.117188 C 187.886719 360.195312 188.121094 360.097656 188.207031 359.886719 C 188.289062 359.679688 188.183594 359.441406 187.976562 359.359375 C 186.523438 358.789062 185.164062 358.601562 184.003906 358.601562 C 181.675781 358.601562 180.136719 359.359375 180.101562 359.371094 C 179.898438 359.472656 179.816406 359.714844 179.917969 359.917969 C 180.015625 360.121094 180.253906 360.199219 180.457031 360.101562"/><path fill="#FFF" d="M 180.457031 358.691406 L 180.515625 358.667969 C 180.792969 358.542969 182.125 358.003906 184.003906 358.003906 C 185.078125 358.003906 186.328125 358.175781 187.679688 358.703125 C 187.886719 358.789062 188.121094 358.683594 188.207031 358.476562 C 188.289062 358.265625 188.183594 358.03125 187.976562 357.945312 C 186.523438 357.378906 185.164062 357.191406 184.003906 357.191406 C 181.675781 357.191406 180.136719 357.945312 180.101562 357.964844 C 179.898438 358.0625 179.816406 358.304688 179.917969 358.507812 C 180.015625 358.707031 180.261719 358.789062 180.457031 358.691406"/><path fill="#FFF" d="M 180.457031 357.277344 L 180.515625 357.253906 C 180.792969 357.132812 182.125 356.59375 184.003906 356.59375 C 185.078125 356.59375 186.328125 356.765625 187.679688 357.292969 C 187.886719 357.378906 188.121094 357.273438 188.207031 357.0625 C 188.289062 356.855469 188.183594 356.621094 187.976562 356.535156 C 186.523438 355.964844 185.164062 355.777344 184.003906 355.777344 C 181.675781 355.777344 180.136719 356.535156 180.101562 356.550781 C 179.898438 356.648438 179.816406 356.894531 179.917969 357.09375 C 180.015625 357.296875 180.253906 357.378906 180.457031 357.277344"/><path fill="#FFF" d="M 142.402344 361.539062 L 142.429688 361.527344 C 142.59375 361.453125 143.394531 361.125 144.433594 361.132812 C 145.632812 361.136719 147.140625 361.535156 148.503906 363.289062 C 148.632812 363.457031 148.871094 363.488281 149.039062 363.355469 C 149.203125 363.230469 149.238281 362.988281 149.105469 362.820312 C 147.609375 360.878906 145.808594 360.355469 144.433594 360.363281 C 143.066406 360.363281 142.09375 360.839844 142.066406 360.855469 C 141.875 360.941406 141.796875 361.175781 141.886719 361.367188 C 141.980469 361.554688 142.210938 361.636719 142.402344 361.539062"/><path fill="#FFF" d="M 144.292969 359.875 L 144.320312 359.867188 C 144.480469 359.789062 145.285156 359.460938 146.320312 359.464844 C 147.519531 359.472656 149.027344 359.871094 150.390625 361.625 C 150.519531 361.789062 150.761719 361.824219 150.925781 361.691406 C 151.097656 361.5625 151.125 361.324219 150.996094 361.15625 C 149.5 359.210938 147.699219 358.695312 146.320312 358.699219 C 144.953125 358.699219 143.988281 359.175781 143.953125 359.1875 C 143.765625 359.28125 143.6875 359.511719 143.78125 359.703125 C 143.875 359.890625 144.101562 359.96875 144.292969 359.875"/><path fill="#FFF" d="M 145.691406 358.722656 L 145.71875 358.707031 C 145.882812 358.632812 146.683594 358.308594 147.71875 358.308594 C 148.917969 358.320312 150.421875 358.71875 151.789062 360.46875 C 151.914062 360.636719 152.160156 360.664062 152.324219 360.539062 C 152.492188 360.410156 152.523438 360.167969 152.394531 360.003906 C 150.898438 358.058594 149.097656 357.539062 147.71875 357.546875 C 146.355469 357.546875 145.382812 358.023438 145.351562 358.03125 C 145.164062 358.125 145.082031 358.355469 145.175781 358.542969 C 145.269531 358.738281 145.496094 358.816406 145.691406 358.722656"/><path fill="#FFF" d="M 146.894531 357.492188 L 146.921875 357.476562 C 147.082031 357.402344 147.882812 357.078125 148.921875 357.078125 C 150.121094 357.085938 151.628906 357.484375 152.992188 359.242188 C 153.125 359.40625 153.363281 359.4375 153.527344 359.304688 C 153.699219 359.179688 153.726562 358.9375 153.601562 358.769531 C 152.101562 356.828125 150.300781 356.304688 148.921875 356.316406 C 147.554688 356.316406 146.589844 356.785156 146.554688 356.800781 C 146.367188 356.894531 146.289062 357.125 146.382812 357.3125 C 146.476562 357.5 146.703125 357.578125 146.894531 357.492188"/><path fill="#FFF" d="M 147.578125 356.503906 L 147.609375 356.488281 C 147.769531 356.417969 148.570312 356.09375 149.605469 356.09375 C 150.804688 356.097656 152.308594 356.496094 153.679688 358.253906 C 153.808594 358.421875 154.046875 358.453125 154.214844 358.324219 C 154.382812 358.191406 154.414062 357.953125 154.28125 357.785156 C 152.785156 355.839844 150.984375 355.320312 149.605469 355.328125 C 148.242188 355.332031 147.269531 355.800781 147.242188 355.816406 C 147.050781 355.910156 146.976562 356.136719 147.0625 356.328125 C 147.15625 356.515625 147.390625 356.597656 147.578125 356.503906"/><path fill="#DA2B41" d="M 144.796875 129.578125 C 143.902344 117.214844 151.5625 96.007812 155.699219 95.425781 C 160.597656 94.742188 173.554688 92.515625 173.554688 92.515625 C 173.554688 92.515625 188.175781 94.453125 193.296875 95.585938 C 206.925781 97.621094 201.128906 123.585938 200.925781 125.664062 C 200.449219 130.480469 197.859375 144.058594 197.019531 159.726562 C 196.09375 177.019531 200.792969 195.957031 201.339844 200.261719 C 201.339844 200.261719 169.097656 214.308594 143.03125 196.855469 L 148.914062 158.855469 L 144.796875 129.578125"/><path fill="#B92937" d="M 200.925781 125.664062 C 200.964844 125.285156 201.191406 124.097656 201.449219 122.414062 C 199.699219 114.257812 198.5625 109.027344 198.5625 109.027344 C 198.5625 109.027344 187.753906 123.011719 189.714844 133.691406 C 191.664062 144.367188 190.367188 148.210938 188.152344 147.765625 C 185.941406 147.324219 162.441406 137.902344 162.441406 137.902344 L 152.875 141.988281 C 152.875 141.988281 148.988281 144.667969 155.433594 146.777344 C 155.433594 146.777344 162.726562 164.375 168.472656 165.878906 C 168.472656 165.878906 163.082031 186.332031 165.488281 188.214844 C 167.898438 190.09375 190.164062 191.546875 192.121094 190.820312 C 192.121094 190.820312 193.820312 195.207031 193.347656 195.8125 C 192.875 196.40625 163.105469 206.492188 143.429688 194.246094 L 143.03125 196.855469 C 169.097656 214.308594 201.339844 200.261719 201.339844 200.261719 C 200.792969 195.957031 196.09375 177.019531 197.019531 159.726562 C 197.859375 144.058594 200.449219 130.480469 200.925781 125.664062"/><path fill="#CC4635" d="M 160.136719 94.355469 C 160.136719 94.355469 144.84375 167.4375 196.902344 163.378906 C 196.902344 163.378906 198.191406 166.789062 197.0625 170.160156 C 197.0625 170.160156 164.464844 174.011719 154.695312 137.902344 C 154.695312 137.902344 149.992188 119.753906 155.699219 95.425781 C 155.699219 95.425781 158.644531 92.109375 160.136719 94.355469"/><path fill="#D77849" d="M 164.46875 96.238281 C 167.113281 91.148438 166.511719 74.429688 166.511719 74.429688 L 182.394531 74.066406 C 181.738281 85.625 184.230469 94.320312 184.230469 94.320312 C 184.230469 94.320312 183.996094 108.117188 182.226562 110.714844 C 180.460938 113.316406 163.941406 115.171875 160.929688 111.351562 C 157.914062 107.523438 164.46875 96.238281 164.46875 96.238281"/><path fill="#D47A4C" d="M 192.898438 57.328125 C 192.898438 57.328125 195.964844 50.617188 197.949219 55.125 C 200.160156 60.160156 196.003906 70.902344 191.714844 66.257812 C 191.714844 66.257812 190.359375 63.109375 192.898438 57.328125"/><path fill="#D47A4C" d="M 154.007812 56.371094 C 154.007812 56.371094 151.082031 49.601562 149.011719 54.066406 C 146.695312 59.058594 150.640625 69.878906 155.019531 65.320312 C 155.019531 65.320312 156.4375 62.203125 154.007812 56.371094"/><path fill="#F78F57" d="M 176.675781 87.769531 C 179.347656 87.148438 189.683594 75.222656 189.683594 75.222656 C 191.53125 68.140625 194.671875 49.589844 194.671875 49.589844 C 194.414062 26.753906 174.199219 26.804688 173.015625 26.828125 C 171.832031 26.828125 151.617188 27.242188 151.882812 50.082031 C 151.882812 50.082031 155.195312 67.761719 157.203125 74.808594 C 157.203125 74.808594 168.0625 87.273438 170.75 87.839844 C 170.75 87.839844 172.664062 89.089844 176.675781 87.769531"/><path fill="#F78F57" d="M 210.476562 147.324219 C 210.476562 147.324219 206.992188 124.121094 206.085938 116.902344 C 205.183594 109.679688 201.738281 100.535156 198.5625 98.335938 C 198.5625 98.335938 191.648438 114.898438 197.285156 123.570312 C 197.285156 123.570312 200.21875 141.058594 199.996094 143.757812 L 210.476562 147.324219"/><path fill="#F78F57" d="M 208.726562 145.398438 L 162.65625 134.832031 L 162.441406 140.546875 C 162.441406 140.546875 183.738281 149.019531 187.335938 150.628906 C 190.9375 152.238281 210.523438 161.488281 212.191406 152.722656 C 212.191406 152.722656 212.855469 148.175781 208.726562 145.398438"/><path fill="#F78F57" d="M 163.152344 134.957031 L 160.75 132.230469 C 160.75 132.230469 160.179688 131.21875 159.382812 131.261719 C 158.59375 131.300781 152.371094 133.417969 152.371094 133.417969 C 152.371094 133.417969 151.625 135.703125 152.070312 136.113281 C 152.070312 136.113281 151.117188 138.054688 151.707031 138.722656 C 151.707031 138.722656 151.011719 140.511719 151.589844 141.523438 C 151.589844 141.523438 151.285156 142.515625 151.617188 142.816406 L 154.253906 144.269531 C 154.253906 144.269531 155.386719 144.734375 156.777344 144.433594 C 158.160156 144.136719 158.421875 143.761719 158.421875 143.761719 C 158.421875 143.761719 158.996094 143.070312 158.835938 142.6875 C 158.835938 142.6875 160.640625 143.539062 163.382812 141.085938 L 163.152344 134.957031"/><path fill="#DA2B41" d="M 197.515625 138.363281 C 197.515625 138.363281 206.632812 143.960938 213.132812 139.566406 C 213.132812 139.566406 208.054688 109.90625 206.054688 103.140625 C 206.054688 103.140625 204.367188 98.484375 196.285156 96.570312 C 196.285156 96.570312 190.933594 110.480469 194.671875 122.828125 C 194.671875 122.828125 196.722656 131.921875 197.515625 138.363281"/><path fill="#CC4635" d="M 171.941406 150.628906 C 171.941406 150.628906 175.777344 150.355469 177.757812 151.503906 C 179.738281 152.652344 185.210938 157.941406 191.121094 159.179688 C 194.054688 159.792969 198.785156 165.507812 199.414062 168.757812 C 199.414062 168.757812 200.496094 175.132812 199.550781 175.777344 C 199.550781 175.777344 200.503906 184.636719 198.816406 185.421875 C 197.132812 186.207031 182.386719 188.207031 176.328125 185.398438 L 171.941406 150.628906"/><path fill="#B13233" d="M 185.949219 186.847656 C 191.636719 186.847656 197.445312 185.957031 198.71875 185.464844 C 197.445312 185.957031 191.636719 186.847656 185.949219 186.847656 M 176.386719 185.425781 C 176.367188 185.417969 176.34375 185.40625 176.328125 185.398438 C 176.34375 185.40625 176.367188 185.417969 176.386719 185.425781"/><path fill="#905B52" d="M 199.550781 175.777344 C 199.726562 175.660156 199.835938 175.339844 199.886719 174.90625 C 199.890625 174.902344 199.890625 174.898438 199.890625 174.894531 C 199.835938 175.335938 199.730469 175.65625 199.550781 175.777344"/><path fill="#B83E32" d="M 185.945312 186.847656 C 185.941406 186.847656 185.941406 186.847656 185.941406 186.847656 C 182.308594 186.847656 178.722656 186.484375 176.386719 185.425781 C 176.367188 185.417969 176.34375 185.40625 176.328125 185.398438 L 174.980469 174.726562 C 175.292969 171.347656 175.546875 168.558594 175.546875 168.558594 C 175.546875 168.558594 186.777344 175.496094 189.148438 175.882812 C 190.457031 176.09375 193.382812 176.71875 195.859375 176.71875 C 197.871094 176.71875 199.589844 176.304688 199.886719 174.90625 C 199.835938 175.339844 199.726562 175.660156 199.550781 175.777344 C 199.550781 175.777344 199.820312 178.273438 199.820312 180.742188 C 199.820312 182.910156 199.609375 185.054688 198.816406 185.421875 C 198.8125 185.421875 198.808594 185.425781 198.804688 185.425781 C 198.78125 185.433594 198.753906 185.449219 198.71875 185.464844 C 197.445312 185.957031 191.636719 186.847656 185.949219 186.847656 C 185.945312 186.847656 185.945312 186.847656 185.945312 186.847656"/><path fill="#AC3831" d="M 171.941406 150.628906 C 171.941406 150.628906 169.273438 150.855469 169.667969 154.453125 C 170.058594 158.058594 171.578125 171.402344 171.066406 172.722656 C 170.558594 174.046875 170.21875 181.773438 171.777344 182.695312 C 173.332031 183.621094 176.59375 186.207031 177.835938 185.503906 C 179.078125 184.804688 179.171875 163.699219 171.941406 150.628906"/><path fill="#F78F57" d="M 120.105469 188.3125 C 120.105469 188.3125 109.707031 195.980469 109.175781 198.648438 C 109.175781 198.648438 108.644531 211.898438 109.359375 212.429688 C 109.359375 212.429688 110.25 212.253906 110.78125 209.765625 C 111.316406 207.277344 111.628906 201.671875 112.691406 200.605469 C 113.757812 199.539062 116.964844 197.40625 116.964844 197.40625 C 116.964844 197.40625 112.558594 203.648438 114.253906 205.410156 C 114.253906 205.410156 117.957031 200.683594 119.332031 199.757812 C 120.699219 198.828125 124.183594 193.53125 124.125 191.1875 C 124.03125 187.386719 120.105469 188.3125 120.105469 188.3125"/><path fill="#5E2921" d="M 173.277344 22.851562 C 165.875 22.472656 150.328125 26.777344 151.144531 52.480469 C 151.144531 52.480469 151.878906 56.695312 153.34375 57.601562 C 153.996094 58.007812 166.773438 55.148438 172.917969 37.039062 C 174.734375 43.585938 179.753906 51.664062 192.898438 56.242188 C 192.898438 56.242188 195.425781 58.285156 196.851562 53.710938 C 198.261719 49.207031 197.523438 21.277344 173.277344 22.851562"/><path fill="#351A1A" d="M 178.875 53.664062 C 178.875 53.664062 182.746094 51.058594 187.714844 53.664062 C 187.714844 53.664062 182.496094 48.617188 178.875 53.664062"/><path fill="#351A1A" d="M 168.976562 53.0625 C 168.976562 53.0625 165.105469 50.457031 160.136719 53.0625 C 160.136719 53.0625 165.355469 48.015625 168.976562 53.0625"/><path fill="#201617" d="M 183.148438 58.644531 C 183.148438 60.089844 182.566406 61.261719 181.851562 61.261719 C 181.136719 61.261719 180.550781 60.085938 180.554688 58.640625 C 180.554688 57.199219 181.140625 56.027344 181.855469 56.027344 C 182.570312 56.027344 183.148438 57.203125 183.148438 58.644531"/><path fill="#201617" d="M 168.472656 58.996094 C 168.46875 60.4375 167.890625 61.609375 167.175781 61.605469 C 166.453125 61.609375 165.875 60.433594 165.875 58.988281 C 165.878906 57.546875 166.460938 56.375 167.175781 56.378906 C 167.894531 56.375 168.472656 57.550781 168.472656 58.996094"/><path fill="#9C452C" d="M 176.839844 56.695312 C 176.976562 58.425781 177.109375 60.105469 177.421875 61.71875 C 177.746094 63.316406 178.246094 64.894531 179.265625 66.007812 L 179.496094 66.265625 L 179.421875 66.53125 C 179.214844 67.28125 178.917969 67.964844 178.558594 68.628906 C 178.363281 68.957031 178.167969 69.277344 177.929688 69.574219 C 177.714844 69.878906 177.421875 70.144531 177.160156 70.390625 C 177.285156 70.035156 177.441406 69.714844 177.546875 69.367188 C 177.667969 69.027344 177.757812 68.679688 177.863281 68.347656 C 178.042969 67.664062 178.203125 66.957031 178.328125 66.296875 L 178.484375 66.816406 C 177.765625 66.183594 177.269531 65.351562 176.917969 64.507812 C 176.59375 63.652344 176.386719 62.765625 176.308594 61.882812 C 176.207031 61.003906 176.222656 60.117188 176.308594 59.25 C 176.390625 58.382812 176.558594 57.523438 176.839844 56.695312"/><path fill="#872936" d="M 168.472656 72.039062 C 168.472656 72.039062 174.246094 74.523438 180.554688 72.039062 C 180.554688 72.039062 174.113281 89.183594 168.472656 72.039062"/><path fill="#FFF" d="M 168.472656 72.039062 C 168.703125 72.738281 168.933594 73.367188 169.167969 73.957031 C 170.746094 74.53125 174.84375 75.675781 179.628906 74.117188 C 180.21875 72.9375 180.554688 72.039062 180.554688 72.039062 C 174.246094 74.523438 168.472656 72.039062 168.472656 72.039062"/><path fill="#C04039" d="M 197.355469 154.652344 C 192.890625 153.191406 188.796875 151.285156 187.335938 150.628906 C 185.789062 149.9375 180.964844 147.976562 175.96875 145.964844 C 180.964844 147.976562 185.789062 149.9375 187.335938 150.628906 C 188.796875 151.285156 192.890625 153.191406 197.355469 154.652344"/><path fill="#E47D4B" d="M 206.398438 156.449219 C 203.710938 156.449219 200.441406 155.660156 197.355469 154.652344 C 192.890625 153.191406 188.796875 151.285156 187.335938 150.628906 C 185.789062 149.9375 180.964844 147.976562 175.96875 145.964844 C 171.316406 144.089844 166.511719 142.171875 164.078125 141.203125 C 166.886719 141.691406 177.851562 143.742188 185.941406 147.324219 C 191.328125 149.703125 199.867188 152.058594 205.773438 152.058594 C 208.761719 152.058594 211.074219 151.457031 211.964844 149.941406 C 212.363281 151.5 212.191406 152.722656 212.191406 152.722656 C 211.671875 155.464844 209.390625 156.449219 206.398438 156.449219"/><path fill="#518FAC" d="M 162.714844 292.914062 C 162.945312 295.847656 162.945312 334.425781 160.007812 335.78125 C 158.527344 336.46875 155.316406 330.558594 152.507812 324.566406 L 153.792969 348.453125 C 153.792969 348.453125 158.261719 352.042969 165.589844 347.023438 C 165.589844 347.023438 169.074219 310.546875 167.429688 290.34375 C 167.429688 290.34375 169.566406 228.652344 172.234375 212.171875 C 164.601562 226.417969 162.492188 289.984375 162.714844 292.914062"/><path fill="#606F82" d="M 329.128906 57.257812 C 329.128906 57.257812 335.488281 63.75 326.980469 64.078125 C 326.980469 64.078125 316.628906 63.769531 314.851562 64.078125 C 313.074219 64.386719 308.570312 60.335938 308.570312 60.335938 C 308.570312 60.335938 306.058594 47.875 306.363281 47.515625 C 306.667969 47.164062 318.875 42.875 318.875 42.875 L 329.128906 57.257812"/><path fill="#1C1A1F" d="M 321.007812 50.761719 C 321.007812 50.761719 330.96875 59.957031 330.738281 61.105469 C 330.738281 61.105469 331.855469 63.371094 328.308594 64.078125 C 328.308594 64.078125 333.957031 64.003906 331.890625 60.335938 C 329.820312 56.667969 322.699219 41.570312 322.542969 41.191406 C 322.382812 40.804688 318.539062 47.515625 318.539062 47.515625 L 321.007812 50.761719"/><path fill="#F78F57" d="M 274.789062 126.507812 C 274.789062 126.507812 262.539062 142.28125 259.28125 143.480469 C 252.492188 145.992188 215.277344 153.726562 215.277344 153.726562 L 214.242188 148.527344 C 214.242188 148.527344 255.664062 132.777344 257.617188 131.789062 L 268.292969 112.503906 L 274.789062 126.507812"/><path fill="#A4352F" d="M 278.578125 87.542969 C 278.578125 87.542969 294.21875 84.324219 291.691406 100.1875 C 290.484375 107.753906 278.394531 124.820312 266.871094 137.925781 C 266.871094 137.925781 261.128906 133.652344 257.617188 130.203125 C 257.617188 130.203125 274 81.867188 278.578125 87.542969"/><path fill="#F78F57" d="M 219.789062 153.296875 C 219.789062 153.296875 213.953125 157.6875 212.558594 158.066406 C 211.160156 158.441406 203.871094 156.757812 203.871094 156.757812 C 203.871094 156.757812 202.980469 155.171875 203.363281 154.632812 C 203.363281 154.632812 202.347656 152.140625 202.726562 151.59375 C 202.726562 151.59375 201.414062 149.652344 202.644531 148.132812 C 203.871094 146.609375 208.4375 146.480469 209.453125 145.84375 C 209.453125 145.84375 206.152344 141.460938 208.058594 140.101562 C 208.058594 140.101562 213.003906 144.199219 214.273438 144.707031 C 214.273438 144.707031 218.550781 146.773438 219.238281 147.820312 L 219.789062 153.296875"/><path fill="#232936" d="M 316.550781 77.285156 C 316.550781 77.285156 317.148438 72.378906 319.292969 72.070312 C 319.292969 72.070312 330.332031 72.378906 332.476562 74.679688 L 330.765625 78.828125 L 333.234375 79.625 C 333.234375 79.625 336.753906 73.96875 333.234375 71.332031 C 333.234375 71.332031 323.082031 69.042969 318.363281 68.953125 C 318.363281 68.953125 315.3125 68.605469 314.851562 76.390625 L 316.550781 77.285156"/><path fill="#9C2327" d="M 312.84375 347.074219 C 312.84375 347.074219 311.816406 346.101562 310.996094 349.832031 C 310.007812 354.347656 308.578125 362.355469 307.441406 367.59375 C 307.078125 369.265625 307.210938 372.488281 308.9375 373.695312 C 310.660156 374.898438 321.609375 374.9375 324.253906 371.898438 C 324.253906 371.898438 325.632812 368.628906 325.171875 365.875 C 324.714844 363.117188 322.964844 347.761719 321.007812 346.382812 C 319.054688 345.007812 312.84375 347.074219 312.84375 347.074219"/><path fill="#76949D" d="M 312.484375 341.285156 C 312.484375 341.285156 312.433594 345.921875 311.890625 348.453125 C 311.890625 348.453125 316.738281 353.28125 321.582031 348.453125 C 321.582031 348.453125 321.238281 341.140625 321.582031 338.757812 C 321.582031 338.757812 312.796875 337.261719 312.484375 341.285156"/><path fill="#9C2327" d="M 286.945312 345.421875 C 286.945312 345.421875 275.320312 357.402344 271.765625 360.246094 C 271.765625 360.246094 267.011719 364.078125 267.011719 367.890625 C 267.011719 370.472656 267.699219 374.207031 275.519531 372.40625 C 283.335938 370.605469 290.386719 361.621094 292.535156 359.933594 C 294.679688 358.246094 299.007812 352.941406 299.625 352.070312 C 299.625 352.070312 301.550781 346.4375 299.148438 343.613281 L 286.945312 345.421875"/><path fill="#76949D" d="M 287.894531 343.398438 C 287.894531 343.398438 286.476562 346.765625 284.792969 348.796875 C 284.136719 349.585938 287.011719 352.96875 292.191406 351.402344 C 292.191406 351.402344 297.578125 348.074219 299.1875 344.902344 C 299.1875 344.902344 298.820312 340.714844 298.820312 338.757812 L 287.894531 343.398438"/><g clip-path="url(#c)"><path fill="#232936" d="M 304.90625 82.769531 C 304.90625 82.769531 307.609375 77.046875 309.921875 76.210938 C 312.230469 75.371094 335.777344 79.65625 341.90625 80.882812 C 348.039062 82.109375 360 106.933594 360.304688 111.226562 C 360.304688 111.226562 359.136719 129.003906 349.328125 145.859375 C 349.328125 145.859375 352.964844 173.914062 349.039062 179.738281 C 349.039062 179.738281 333.507812 194.148438 325.515625 194.148438 C 317.523438 194.148438 298.476562 182.195312 298.476562 182.195312 L 304.90625 82.769531"/></g><path fill="#232936" d="M 330.300781 186.941406 L 277.695312 187.792969 C 277.695312 187.792969 277.628906 214.902344 281.917969 257.761719 L 286.5625 344.148438 C 286.5625 344.148438 293.246094 347.742188 300.410156 342.832031 C 300.410156 342.832031 301.519531 307.058594 299.910156 287.289062 C 299.910156 287.289062 301.386719 234.675781 303.996094 218.554688 L 309.105469 276.488281 L 310.117188 342.820312 C 310.117188 342.820312 316.464844 346.597656 324.636719 342.898438 C 324.636719 342.898438 327.824219 284.3125 325.890625 275.566406 L 328.3125 226.839844 C 328.3125 226.839844 332.332031 200.398438 330.300781 186.941406"/><path fill="#191B21" d="M 277.695312 187.792969 C 277.695312 187.792969 277.695312 188.515625 277.707031 189.894531 L 277.894531 189.996094 C 290.925781 196.894531 307.574219 194.148438 307.574219 194.148438 L 307.574219 204.246094 C 313.636719 205.167969 326.332031 201.210938 326.332031 201.210938 C 327.785156 205.527344 326.332031 225.089844 326.332031 225.089844 C 323.730469 236.277344 321.582031 276.488281 321.582031 276.488281 C 321.125 295.390625 314.070312 309.222656 314.070312 309.222656 C 311.007812 309.222656 309.105469 276.488281 309.105469 276.488281 L 310.117188 342.820312 C 310.117188 342.820312 316.464844 346.597656 324.636719 342.898438 C 324.636719 342.898438 327.824219 284.3125 325.890625 275.566406 L 328.3125 226.839844 C 328.3125 226.839844 332.332031 200.398438 330.300781 186.941406 L 277.695312 187.792969"/><path fill="#9C2327" d="M 325.117188 84.207031 L 312.84375 79.503906 L 295.199219 82.027344 C 289.019531 83.171875 284.222656 84.589844 280.972656 85.722656 L 280.972656 188.742188 C 299.839844 193.796875 316.898438 190.722656 325.117188 188.542969 L 325.117188 84.207031"/><path fill="#791D21" d="M 289.324219 141.691406 L 291.691406 84.332031 L 278.8125 135.515625 L 283.871094 189.457031 C 285.710938 189.875 287.53125 190.222656 289.324219 190.5 L 289.324219 141.691406"/><path fill="#791D21" d="M 300.589844 191.46875 C 303.46875 191.527344 306.21875 191.4375 308.796875 191.25 L 316.550781 80.925781 L 316.546875 80.921875 C 316.394531 81.753906 305.015625 145.351562 304.90625 148.964844 L 300.589844 191.46875"/><path fill="#CC4635" d="M 275.085938 190.304688 C 275.085938 190.304688 275.832031 159.394531 274.828125 131.457031 C 274.230469 114.691406 272.09375 98.324219 276.019531 87.699219 C 276.019531 87.699219 283.410156 84.269531 292.039062 82.171875 C 292.039062 82.171875 286.632812 125.707031 286.171875 129.15625 C 286.171875 129.15625 286.644531 195.695312 287.394531 201.210938 C 287.394531 201.210938 280.171875 197.449219 275.085938 190.304688"/><path fill="#CC4635" d="M 333.671875 163.941406 C 333.671875 163.941406 334.292969 139.578125 338.890625 125.328125 C 343.492188 111.074219 340.433594 90.078125 340.433594 90.078125 L 316.550781 80.882812 C 316.550781 80.882812 312.613281 133.257812 308.9375 143.964844 C 308.9375 143.964844 304.101562 193.289062 305.027344 200.875 C 305.027344 200.875 316.523438 203.945312 333.765625 191.492188 L 333.671875 163.941406"/><path fill="#B13931" d="M 333.765625 191.492188 L 333.671875 163.941406 C 333.671875 163.941406 334.886719 139.101562 339.089844 124.710938 L 330.875 122.257812 C 330.875 122.257812 327.066406 131.835938 329.390625 145.324219 C 331.398438 157 329.992188 186.578125 328.015625 195.207031 C 329.851562 194.152344 331.765625 192.9375 333.765625 191.492188"/><path fill="#D77849" d="M 316.214844 53.152344 C 316.214844 53.152344 315.03125 74.679688 316.550781 80.882812 C 316.550781 80.882812 303.351562 95.988281 291.359375 84.101562 C 291.359375 84.101562 292.855469 80.425781 294.449219 71.421875 L 316.214844 53.152344"/><path fill="#BD633F" d="M 315.792969 65.929688 C 315.847656 61.398438 316.027344 57.121094 316.132812 54.851562 L 315.402344 53.835938 L 307.164062 60.75 L 299.144531 67.484375 L 294.371094 71.859375 L 294.339844 72.019531 C 293.992188 73.914062 293.660156 75.570312 293.339844 76.988281 L 293.335938 77.011719 C 293.175781 77.722656 293.023438 78.359375 292.878906 78.957031 L 292.855469 79.058594 C 292.707031 79.636719 292.570312 80.164062 292.445312 80.636719 L 292.433594 80.667969 C 299.90625 86.898438 311.429688 72.164062 315.792969 65.929688"/><path fill="#232936" d="M 330.875 84.675781 C 330.875 84.675781 320.492188 112.828125 318.363281 127.085938 C 318.363281 127.085938 323.824219 164.769531 333.714844 175.921875 C 333.714844 175.921875 334.15625 174.503906 334.335938 173.25 C 334.625 171.238281 333.691406 169.230469 333.691406 169.230469 C 333.691406 169.230469 325.609375 146.96875 324.113281 129.003906 C 324.113281 129.003906 332.847656 94.144531 335.835938 88.664062 L 338.25 89.273438 C 338.25 89.273438 337.789062 87.324219 337.214844 86.742188 C 336.640625 86.167969 333.078125 83.808594 330.875 84.675781"/><path fill="#FBCED1" d="M 292.535156 359.933594 C 294.679688 358.246094 299.007812 352.941406 299.625 352.070312 C 299.625 352.070312 300.0625 350.773438 300.261719 349.113281 C 295.558594 355.964844 281.113281 368.21875 281.113281 368.21875 C 274.328125 371.785156 268.808594 370.566406 267.121094 369.367188 C 267.496094 371.644531 269.109375 373.878906 275.519531 372.40625 C 283.335938 370.605469 290.386719 361.621094 292.535156 359.933594"/><path fill="#FBCED1" d="M 323.882812 357.035156 C 323.964844 358.867188 324.148438 361.238281 324.34375 364.316406 C 324.796875 371.597656 316.738281 371.4375 316.738281 371.4375 C 308.582031 373.09375 307.351562 368.242188 307.339844 368.210938 C 307.128906 369.964844 307.402344 372.625 308.9375 373.695312 C 310.660156 374.898438 321.609375 374.9375 324.253906 371.898438 C 324.253906 371.898438 325.632812 368.628906 325.171875 365.875 C 324.96875 364.644531 324.503906 360.914062 323.882812 357.035156"/><path fill="#FFF" d="M 312.09375 361.410156 L 312.15625 361.378906 C 312.46875 361.238281 313.980469 360.628906 316.101562 360.628906 C 317.320312 360.628906 318.738281 360.824219 320.261719 361.421875 C 320.503906 361.515625 320.765625 361.398438 320.859375 361.164062 C 320.953125 360.929688 320.835938 360.660156 320.601562 360.566406 C 318.953125 359.921875 317.421875 359.710938 316.101562 359.710938 C 313.472656 359.710938 311.726562 360.566406 311.691406 360.585938 C 311.457031 360.695312 311.363281 360.972656 311.476562 361.199219 C 311.589844 361.429688 311.867188 361.523438 312.09375 361.410156"/><path fill="#FFF" d="M 312.09375 359.8125 L 312.15625 359.785156 C 312.46875 359.644531 313.980469 359.027344 316.101562 359.035156 C 317.320312 359.035156 318.738281 359.230469 320.261719 359.828125 C 320.503906 359.921875 320.765625 359.804688 320.859375 359.570312 C 320.953125 359.328125 320.835938 359.066406 320.601562 358.972656 C 318.953125 358.328125 317.421875 358.113281 316.101562 358.113281 C 313.472656 358.117188 311.726562 358.96875 311.691406 358.988281 C 311.457031 359.097656 311.363281 359.375 311.476562 359.601562 C 311.589844 359.828125 311.867188 359.921875 312.09375 359.8125"/><path fill="#FFF" d="M 312.09375 358.214844 L 312.15625 358.1875 C 312.46875 358.046875 313.980469 357.433594 316.101562 357.433594 C 317.320312 357.433594 318.738281 357.632812 320.261719 358.230469 C 320.503906 358.324219 320.765625 358.207031 320.859375 357.96875 C 320.953125 357.734375 320.835938 357.46875 320.601562 357.378906 C 318.953125 356.734375 317.421875 356.515625 316.101562 356.515625 C 313.472656 356.515625 311.726562 357.371094 311.691406 357.390625 C 311.457031 357.5 311.363281 357.777344 311.476562 358.007812 C 311.589844 358.234375 311.867188 358.328125 312.09375 358.214844"/><path fill="#FFF" d="M 312.09375 356.621094 L 312.15625 356.59375 C 312.46875 356.449219 313.980469 355.839844 316.101562 355.839844 C 317.320312 355.839844 318.738281 356.035156 320.261719 356.632812 C 320.496094 356.726562 320.765625 356.609375 320.859375 356.375 C 320.953125 356.140625 320.835938 355.871094 320.601562 355.777344 C 318.953125 355.132812 317.421875 354.917969 316.101562 354.917969 C 313.472656 354.921875 311.726562 355.773438 311.691406 355.796875 C 311.457031 355.90625 311.363281 356.183594 311.476562 356.410156 C 311.589844 356.640625 311.867188 356.734375 312.09375 356.621094"/><path fill="#FFF" d="M 312.09375 355.019531 L 312.15625 354.992188 C 312.46875 354.851562 313.980469 354.238281 316.101562 354.246094 C 317.320312 354.246094 318.738281 354.441406 320.261719 355.035156 C 320.503906 355.128906 320.765625 355.015625 320.859375 354.777344 C 320.953125 354.542969 320.835938 354.273438 320.601562 354.183594 C 318.953125 353.539062 317.421875 353.324219 316.101562 353.324219 C 313.472656 353.324219 311.726562 354.179688 311.691406 354.199219 C 311.457031 354.3125 311.363281 354.582031 311.476562 354.8125 C 311.589844 355.039062 311.867188 355.132812 312.09375 355.019531"/><path fill="#FFF" d="M 272.503906 359.8125 L 272.535156 359.796875 C 272.734375 359.710938 273.695312 359.316406 274.941406 359.320312 C 276.386719 359.324219 278.191406 359.808594 279.828125 361.914062 C 279.984375 362.113281 280.273438 362.152344 280.472656 361.996094 C 280.675781 361.84375 280.714844 361.550781 280.558594 361.351562 C 278.757812 359.015625 276.597656 358.390625 274.941406 358.398438 C 273.296875 358.398438 272.136719 358.972656 272.097656 358.988281 C 271.867188 359.097656 271.773438 359.371094 271.886719 359.601562 C 272 359.828125 272.273438 359.921875 272.503906 359.8125"/><path fill="#FFF" d="M 274.769531 357.808594 L 274.804688 357.796875 C 275.003906 357.707031 275.960938 357.316406 277.207031 357.316406 C 278.652344 357.324219 280.460938 357.804688 282.097656 359.914062 C 282.253906 360.117188 282.542969 360.152344 282.746094 359.996094 C 282.945312 359.84375 282.980469 359.550781 282.828125 359.351562 C 281.03125 357.015625 278.863281 356.390625 277.207031 356.398438 C 275.566406 356.402344 274.40625 356.96875 274.367188 356.988281 C 274.140625 357.101562 274.042969 357.371094 274.15625 357.601562 C 274.269531 357.828125 274.546875 357.921875 274.769531 357.808594"/><path fill="#FFF" d="M 276.445312 356.425781 L 276.484375 356.410156 C 276.683594 356.324219 277.640625 355.929688 278.886719 355.933594 C 280.328125 355.9375 282.140625 356.421875 283.777344 358.53125 C 283.933594 358.726562 284.21875 358.765625 284.421875 358.609375 C 284.625 358.453125 284.660156 358.167969 284.507812 357.964844 C 282.703125 355.628906 280.542969 355.007812 278.886719 355.011719 C 277.246094 355.015625 276.085938 355.585938 276.046875 355.597656 C 275.816406 355.710938 275.722656 355.984375 275.835938 356.214844 C 275.941406 356.441406 276.21875 356.535156 276.453125 356.425781"/><path fill="#FFF" d="M 277.894531 354.945312 L 277.933594 354.925781 C 278.125 354.84375 279.085938 354.453125 280.332031 354.453125 C 281.777344 354.460938 283.585938 354.941406 285.226562 357.046875 C 285.382812 357.246094 285.667969 357.285156 285.871094 357.128906 C 286.074219 356.972656 286.109375 356.6875 285.957031 356.484375 C 284.152344 354.144531 281.988281 353.523438 280.332031 353.53125 C 278.691406 353.535156 277.527344 354.105469 277.492188 354.117188 C 277.265625 354.230469 277.171875 354.507812 277.285156 354.734375 C 277.390625 354.964844 277.671875 355.058594 277.894531 354.945312"/><path fill="#FFF" d="M 278.71875 353.765625 L 278.753906 353.746094 C 278.949219 353.65625 279.910156 353.265625 281.15625 353.269531 C 282.601562 353.277344 284.40625 353.753906 286.046875 355.863281 C 286.199219 356.066406 286.492188 356.101562 286.691406 355.949219 C 286.890625 355.792969 286.929688 355.503906 286.773438 355.304688 C 284.976562 352.964844 282.8125 352.339844 281.15625 352.347656 C 279.515625 352.355469 278.351562 352.917969 278.316406 352.9375 C 278.089844 353.050781 277.988281 353.324219 278.101562 353.554688 C 278.214844 353.777344 278.488281 353.875 278.71875 353.765625"/><path fill="#191B21" d="M 289.234375 310.449219 C 287.601562 311.152344 285.667969 305.316406 284.160156 299.414062 L 286.5625 344.148438 C 286.5625 344.148438 293.246094 347.742188 300.410156 342.832031 C 300.410156 342.832031 301.519531 307.058594 299.910156 287.289062 C 299.910156 287.289062 301.328125 236.734375 303.847656 219.566406 L 303.847656 219.554688 C 298.679688 222.757812 297.515625 281.175781 297.667969 283.628906 C 297.824219 286.082031 292.453125 309.066406 289.234375 310.449219"/><path fill="#461F1C" d="M 273.410156 35.710938 C 273.410156 35.710938 271.578125 43.597656 277.5 53.21875 L 278.578125 37.378906 L 273.410156 35.710938"/><path fill="#F78F57" d="M 276.355469 49.949219 C 276.355469 49.949219 277.707031 57.566406 280.421875 65.890625 C 282.125 71.117188 286.632812 75.222656 290.910156 78.953125 C 293.089844 80.847656 296.308594 81.640625 298.859375 79.609375 C 298.859375 79.609375 307.421875 74.390625 311.960938 66.457031 C 315.570312 60.152344 317.449219 53.132812 316.195312 43.589844 C 316.195312 43.589844 314.78125 16.839844 287 24.160156 C 287 24.160156 273.445312 27.613281 276.355469 49.949219"/><path fill="#CB643D" d="M 284.261719 32.492188 L 279.378906 35.910156 L 276.667969 37.070312 C 276.121094 39.503906 275.84375 42.378906 275.996094 45.78125 L 276.171875 48.269531 L 276.191406 48.457031 C 276.257812 48.25 278.414062 41.242188 279.132812 40.976562 C 279.132812 40.976562 286.144531 43.40625 301.746094 34.410156 C 301.746094 34.410156 302.773438 37.832031 309.375 41.917969 C 309.375 41.917969 313.25 46.21875 312.773438 50.1875 C 312.382812 53.4375 316.125 52.324219 315.886719 50.484375 C 315.648438 48.640625 312.277344 36.015625 312.277344 36.015625 L 302.339844 27.003906 L 284.261719 32.492188"/><path fill="#713022" d="M 285.429688 49.582031 C 285.429688 49.582031 280.917969 44.859375 277.730469 49.707031 C 277.730469 49.707031 280.082031 48.433594 285.429688 49.582031"/><path fill="#713022" d="M 291.855469 48.429688 C 291.855469 48.429688 297.4375 42.542969 303.441406 46.929688 C 303.441406 46.929688 298.265625 45.429688 291.855469 48.429688"/><g clip-path="url(#d)"><g clip-path="url(#e)"><path fill="#BC6745" d="M 292.492188 75.792969 L 298.476562 75.792969 L 298.476562 73.382812 L 292.492188 73.382812 Z M 292.492188 75.792969"/></g></g><path fill="#F78F57" d="M 316.179688 49.070312 C 316.179688 49.070312 319.519531 41.503906 321.800781 46.527344 C 324.355469 52.140625 319.847656 64.234375 314.980469 59.089844 C 314.980469 59.089844 313.410156 55.585938 316.179688 49.070312"/><path fill="#9C452C" d="M 288.398438 64.457031 C 287.6875 64.210938 287 63.878906 286.375 63.429688 C 286.0625 63.203125 285.769531 62.957031 285.515625 62.644531 C 285.265625 62.339844 285.039062 61.976562 284.96875 61.539062 L 284.957031 61.484375 L 284.980469 61.417969 C 285.273438 60.59375 285.523438 59.746094 285.738281 58.894531 C 285.832031 58.464844 285.96875 58.042969 286.0625 57.617188 L 286.335938 56.328125 C 286.429688 55.894531 286.449219 55.457031 286.535156 55.023438 C 286.621094 54.589844 286.65625 54.160156 286.667969 53.714844 C 286.667969 53.285156 286.761719 52.835938 286.703125 52.402344 C 286.671875 51.964844 286.632812 51.527344 286.609375 51.078125 C 286.722656 51.503906 286.816406 51.941406 286.910156 52.386719 C 287.039062 52.824219 286.988281 53.273438 287.023438 53.726562 C 287.046875 54.175781 287.046875 54.625 286.996094 55.070312 C 286.964844 55.519531 286.925781 55.96875 286.851562 56.410156 C 286.695312 57.296875 286.542969 58.179688 286.289062 59.042969 C 286.046875 59.90625 285.769531 60.753906 285.449219 61.597656 L 285.460938 61.476562 C 285.496094 61.632812 285.519531 61.789062 285.589844 61.945312 C 285.660156 62.097656 285.734375 62.253906 285.84375 62.394531 C 286.039062 62.683594 286.292969 62.945312 286.574219 63.1875 C 287.121094 63.671875 287.75 64.085938 288.398438 64.457031"/><path fill="#872936" d="M 287.226562 66.226562 C 287.226562 66.226562 294.175781 66.152344 300.863281 64.078125 C 300.863281 64.078125 299.148438 72.054688 293.777344 71.949219 C 289.039062 71.859375 287.226562 66.226562 287.226562 66.226562"/><path fill="#FFF" d="M 300.863281 64.078125 C 300.863281 64.078125 300.738281 64.644531 300.457031 65.476562 C 298.679688 66.320312 292.90625 68.816406 288.214844 68.292969 C 287.53125 67.171875 287.226562 66.226562 287.226562 66.226562 C 287.226562 66.226562 294.175781 66.152344 300.863281 64.078125"/><path fill="#201617" d="M 298.136719 52.800781 C 298.320312 54.261719 297.882812 55.519531 297.160156 55.613281 C 296.441406 55.707031 295.699219 54.597656 295.511719 53.132812 C 295.328125 51.675781 295.765625 50.414062 296.492188 50.324219 C 297.214844 50.230469 297.949219 51.339844 298.136719 52.800781"/><path fill="#201617" d="M 285.355469 54.445312 C 285.539062 55.902344 285.101562 57.160156 284.375 57.253906 C 283.652344 57.34375 282.910156 56.234375 282.726562 54.773438 C 282.542969 53.3125 282.980469 52.054688 283.707031 51.960938 C 284.425781 51.871094 285.164062 52.984375 285.355469 54.445312"/><path fill="#5E2921" d="M 317.453125 46.800781 C 317.453125 46.800781 316.113281 51.015625 315.378906 51.226562 C 314.644531 51.441406 314.214844 49.9375 314.214844 49.9375 C 314.214844 49.9375 311.261719 42.335938 309.589844 40.179688 C 309.589844 40.179688 304.277344 35.050781 302.574219 32.726562 C 302.574219 32.726562 285.574219 39.9375 278.949219 39.089844 C 278.949219 39.089844 273.101562 39.371094 272.105469 35.695312 C 272.105469 35.695312 269.796875 26.371094 276.78125 21.457031 C 276.78125 21.457031 288.441406 11.621094 306.433594 20.257812 C 306.433594 20.257812 323.242188 18.648438 319.476562 44.894531 C 319.476562 44.894531 318.160156 45.167969 317.453125 46.800781"/><path fill="#F78F57" d="M 326.816406 137.753906 C 326.816406 137.753906 313.488281 150.035156 310.230469 151.242188 C 303.441406 153.75 266.230469 161.488281 266.230469 161.488281 L 265.195312 156.285156 C 265.195312 156.285156 306.613281 140.535156 308.570312 139.546875 L 318.972656 125.15625 L 326.816406 137.753906"/><path fill="#CC4635" d="M 340.433594 90.078125 C 340.433594 90.078125 350.730469 93.875 348.203125 109.738281 C 346.992188 117.300781 330.585938 135.125 318.960938 146.089844 C 318.960938 146.089844 313.636719 139.648438 310.117188 136.203125 C 310.117188 136.203125 333.917969 86.507812 340.433594 90.078125"/><path fill="#D87265" d="M 316.550781 80.882812 C 316.550781 80.882812 321.5625 92.925781 322.542969 99.726562 C 322.542969 99.726562 313.308594 116.257812 313.054688 118.503906 C 313.054688 118.503906 313.671875 94.222656 316.550781 80.882812"/><path fill="#D87265" d="M 292.039062 82.042969 L 287.863281 115.722656 C 287.863281 115.722656 283.910156 104.441406 281.722656 102.140625 C 279.539062 99.839844 288.335938 85.398438 292.039062 82.042969"/><path fill="#1C1A1F" d="M 291.359375 28.8125 C 281.335938 27.085938 274.828125 29.527344 274.828125 29.527344 C 274.710938 23.347656 282.300781 22.894531 282.300781 22.894531 C 292.359375 22.621094 291.359375 28.8125 291.359375 28.8125 Z M 323.171875 32.261719 C 320.464844 26.972656 311.039062 18.96875 306.210938 16.703125 C 301.386719 14.445312 269.683594 -0.0351562 271.738281 32.375 C 271.738281 32.375 301.65625 23.238281 317.214844 47.515625 C 317.214844 47.515625 318.804688 43.410156 321.015625 45.304688 C 321.015625 45.304688 325.871094 37.546875 323.171875 32.261719"/><path fill="#606F82" d="M 258.046875 183.125 C 258.046875 186.808594 252.960938 189.070312 250.28125 188.425781 L 214.273438 177.636719 C 211.59375 176.992188 209.394531 174.207031 209.394531 171.449219 L 205.960938 110.1875 C 205.960938 107.433594 210.636719 105.144531 214.273438 105.992188 L 253.175781 115.332031 C 255.855469 115.976562 258.046875 118.753906 258.046875 121.511719 L 258.046875 183.125"/><path fill="#889AA8" d="M 254.511719 184.476562 C 254.511719 187.238281 252.316406 188.964844 249.636719 188.324219 L 210.738281 178.984375 C 208.050781 178.339844 205.855469 175.5625 205.855469 172.804688 L 205.855469 111.191406 C 205.855469 108.433594 208.050781 106.703125 210.738281 107.347656 L 249.636719 116.679688 C 252.316406 117.324219 254.511719 120.109375 254.511719 122.867188 L 254.511719 184.476562"/><path fill="#F78F57" d="M 268.292969 161.054688 C 268.292969 161.054688 262.453125 165.441406 261.058594 165.824219 C 259.664062 166.203125 252.371094 164.515625 252.371094 164.515625 C 252.371094 164.515625 251.480469 162.933594 251.859375 162.394531 C 251.859375 162.394531 250.847656 159.902344 251.230469 159.355469 C 251.230469 159.355469 249.914062 157.414062 251.140625 155.890625 C 252.371094 154.363281 256.9375 154.242188 257.953125 153.605469 C 257.953125 153.605469 254.65625 149.21875 256.558594 147.863281 C 256.558594 147.863281 261.507812 151.957031 262.777344 152.464844 C 262.777344 152.464844 267.050781 154.527344 267.742188 155.582031 L 268.292969 161.054688"/><path fill="#B13931" d="M 348.433594 107.738281 C 342.386719 118.472656 319.523438 137.769531 319.523438 137.769531 C 317.386719 136.421875 313.144531 133.632812 311.808594 132.753906 C 310.742188 134.902344 310.117188 136.203125 310.117188 136.203125 C 313.636719 139.648438 318.960938 146.089844 318.960938 146.089844 C 330.585938 135.125 346.992188 117.300781 348.203125 109.738281 C 348.316406 109.035156 348.371094 108.386719 348.433594 107.738281"/></svg>